<?xml version="1.0" encoding="utf-8"?><!DOCTYPE svg  PUBLIC '-//W3C//DTD SVG 1.1//EN'  'http://www.w3.org/Graphics/SVG/1.1/DTD/svg11.dtd'><svg enable_background="new 0 0 1000 67" height="67px" pretty_print="False" style="stroke-linejoin: round; stroke:#000; fill: none;" version="1.1" viewBox="0 0 1000 67" width="1000px" xmlns="http://www.w3.org/2000/svg" xmlns:xlink="http://www.w3.org/1999/xlink"><defs><style type="text/css"><![CDATA[path { fill-rule: evenodd; }]]></style></defs><metadata><views><view h="67.6599723614" padding="0" w="1000"><proj flip="auto" id="robinson" lon0="-135.336143043"/><bbox h="304.46" w="4567.41" x="-2282.67" y="-1159.42"/></view></views></metadata><g class="" id="countylayer"><path d="M153.507621,36.468501L152.651781,36.703551L152.276663,37.993421L153.181613,37.977639L153.346951,37.858120L153.331006,37.723189L153.607001,37.547616L153.892316,37.251718L153.862767,37.053336L153.740271,36.917434L153.803943,36.808439L153.507621,36.468501Z "/><path d="M93.951678,40.194120L93.406200,40.431276L95.801681,40.431881L96.858312,39.478654L94.892156,39.502478L94.697194,39.570161L94.941940,39.583658L94.900533,39.672770L94.363348,39.995441L93.951678,40.194120Z "/><path d="M990.242016,63.034337L990.452436,63.221746L990.726378,63.327011L991.080381,63.386885L991.194282,63.254768L991.058821,63.050317L990.478720,62.859543L990.364389,62.890299L990.242016,63.034337Z M989.017166,64.145256L989.173319,64.281612L989.859652,64.496754L990.114628,64.486787L990.380490,64.580301L990.952347,64.859242L991.972969,65.251232L992.499247,65.158570L992.136850,64.976447L991.789683,64.965880L991.298875,64.761892L990.022401,64.254196L989.079510,64.048644L989.017166,64.145256Z M987.413792,62.990823L987.412038,63.068212L987.847512,63.296764L987.935078,63.284267L987.894716,63.112886L987.709107,63.038959L987.413792,62.990823Z M987.286340,63.535348L987.710422,63.763438L988.056483,63.823613L987.902310,63.668170L987.607222,63.514863L987.286340,63.535348Z M986.154232,62.757526L986.248863,62.882952L986.518210,63.028403L986.684323,62.979356L986.535902,62.839471L986.297783,62.735758L986.154232,62.757526Z M984.245822,63.224903L984.303184,63.367631L984.594902,63.427759L984.862321,63.552421L984.774001,63.410831L984.745985,63.288781L984.744366,63.188608L985.022056,63.219092L985.299336,63.218325L985.222833,63.119209L984.926792,62.942407L984.929260,62.849815L984.876344,62.629198L984.658276,62.494983L984.422358,62.446385L984.560979,62.730070L984.629686,62.949553L984.490779,63.058356L984.465512,63.180102L984.245822,63.224903Z M971.905498,60.207094L971.904075,60.319901L972.521231,60.500646L973.023750,60.505481L972.809703,60.351208L972.586394,60.327386L971.905498,60.207094Z M971.933058,61.319408L971.822236,61.521631L972.433975,61.671933L972.502621,61.588715L972.927936,61.714295L973.129901,61.713572L973.060902,61.589822L972.780320,61.442954L972.697448,61.183257L972.278365,61.133807L972.218078,61.288480L971.933058,61.319408Z M967.494845,59.647935L967.769161,59.869772L967.959296,59.762514L968.220133,59.791199L968.579554,59.913739L968.802257,60.099501L969.053438,60.218115L969.410802,60.313473L969.517231,60.211937L969.841624,60.226773L970.002434,60.197615L969.908026,60.012348L970.201066,60.084741L970.576313,60.081752L970.434556,59.945291L969.681567,59.683064L969.160824,59.524471L968.201257,59.461666L967.808929,59.474039L967.494845,59.647935Z M46.089777,58.335454L45.828921,58.427873L45.982831,58.548713L46.238936,58.628595L46.562383,58.533910L46.668938,58.564009L47.078485,58.354947L47.390930,58.339549L47.542301,58.237096L48.057049,58.069571L48.346788,58.027652L48.581019,58.013129L48.897550,58.010779L49.285713,57.972736L49.703010,57.813933L50.062260,57.664949L50.449051,57.481557L50.827071,57.286208L51.284662,57.170667L51.621696,57.045522L51.979389,56.975548L52.436684,56.646447L52.491866,56.554518L52.197264,56.614981L51.648052,56.783227L51.545130,56.706823L51.991904,56.500255L52.204411,56.475121L52.454453,56.341054L52.658758,56.273785L52.633636,56.251847L52.574950,56.189132L52.669476,56.099873L52.533370,56.129641L52.374455,56.044608L51.989512,56.204781L51.682420,56.313514L51.600352,56.190418L51.645512,56.002934L51.385753,55.999484L50.919863,56.091343L50.352851,56.240594L49.771515,56.509703L49.623763,56.646451L49.643759,56.738949L49.730688,56.891879L49.462573,57.055067L49.226423,57.200610L49.011454,57.312287L48.767927,57.405573L48.639953,57.593519L48.400433,57.686870L47.990699,57.843348L47.644070,57.939366L47.379096,57.966377L46.838644,58.136475L46.540345,58.154751L46.089777,58.335454Z M40.051172,60.233797L40.011100,60.336845L40.337543,60.261703L40.978133,60.077635L41.676842,59.808346L41.933983,59.810185L42.327815,59.607063L42.682444,59.460948L43.277176,59.298713L43.595706,59.109707L43.999874,58.903446L44.331494,58.708229L45.104713,58.498087L45.657747,58.313883L46.135167,58.160066L46.248494,58.015165L46.544135,57.859525L46.760270,57.703180L46.433720,57.691535L46.276040,57.553892L45.556948,57.694334L45.109579,57.852197L44.681446,58.121234L44.341088,58.379428L44.066578,58.577061L43.773293,58.504108L42.906450,58.861220L42.566611,59.077553L42.348979,59.335942L42.040042,59.434719L41.486013,59.709355L41.101170,59.857032L40.051172,60.233797Z M53.087883,47.079778L53.070970,47.397588L53.331856,47.406993L53.853017,47.248406L53.959923,47.108301L53.583873,47.116497L53.087883,47.079778Z M37.650697,60.233207L37.275042,60.495673L37.670242,60.455902L38.259279,60.220445L38.631004,60.210221L38.890274,60.260136L39.306468,59.959079L39.633712,59.657578L39.887822,59.370285L39.916190,59.169952L39.623128,59.260969L39.456824,59.566890L38.947812,59.806646L38.621809,59.681167L38.350540,59.769205L37.650697,60.233207Z M53.781776,45.122693L53.572901,45.297139L53.797614,45.408595L54.406192,45.229240L54.622056,45.021901L54.186959,45.038003L53.781776,45.122693Z M35.354564,60.746522L35.007239,61.016413L35.087965,61.078391L35.514831,60.936726L35.810903,60.916137L36.289386,60.595580L35.976015,60.533029L35.354564,60.746522Z M33.492890,61.239969L33.358806,61.390564L33.513124,61.444805L33.834215,61.217136L33.771721,61.118697L33.492890,61.239969Z M29.277959,61.885747L28.977863,62.100600L29.317593,62.067462L29.708500,61.989898L30.208797,61.805719L30.272826,61.679341L30.031637,61.592960L29.645848,61.709129L29.277959,61.885747Z M21.027127,62.755928L20.792118,62.922727L21.264797,62.908775L21.633208,62.924419L22.014039,62.880432L22.394416,62.923351L22.993908,62.821336L23.310204,62.904271L23.631304,62.665618L23.944764,62.638479L24.368790,62.698821L24.829518,62.777305L25.026895,62.798530L25.412758,62.756909L25.802139,62.860937L26.139553,62.849275L26.807256,62.796665L27.397145,62.726649L27.641834,62.576511L27.091565,62.510997L26.478112,62.573541L26.241035,62.396371L25.853575,62.442003L25.160739,62.463632L24.803283,62.485237L25.109902,62.130042L25.575004,61.848464L25.614554,61.596793L25.396159,61.501811L24.840541,61.654858L24.277578,61.861997L23.890643,62.210488L23.448456,62.392765L22.889892,62.507197L22.424793,62.502945L21.898587,62.629399L21.027127,62.755928Z M15.172677,64.035951L14.779845,64.313387L14.854884,64.368614L15.302696,64.280847L15.574316,64.266297L15.874810,64.134659L16.328717,63.994267L16.640988,63.897194L17.180531,63.845067L17.640164,63.750539L18.196020,63.637218L18.455703,63.482028L19.197629,63.228493L19.658203,63.178812L20.386515,63.044633L20.463922,62.904510L19.810861,62.969973L19.403235,62.984526L19.205584,62.965535L19.137902,62.719097L19.164448,62.569241L18.938899,62.541170L18.576330,62.724372L18.411956,62.952490L18.265007,63.128934L18.011082,63.356423L17.598041,63.391073L17.228317,63.430264L16.763460,63.495834L17.070006,63.261411L17.252700,63.102796L17.343322,62.937463L16.876325,63.071954L16.675960,63.066956L16.434004,63.201553L16.348112,63.406983L16.165079,63.530200L15.665854,63.652930L15.172677,64.035951Z M13.408460,63.839153L13.158278,63.978466L13.131033,64.150996L13.694463,64.051378L14.118808,64.001930L14.259960,64.057520L14.554246,63.999484L14.867083,63.922668L15.288514,63.539662L15.687930,63.300368L15.677615,63.170230L15.479376,63.145784L15.308373,63.260006L14.839391,63.629438L14.513223,63.718173L13.994384,63.745661L13.408460,63.839153Z M12.563393,63.276572L12.339568,63.417383L12.507685,63.614637L12.658594,63.706674L12.453766,63.935574L12.213601,63.973256L11.942045,64.066826L11.964746,64.232797L12.216543,64.348840L12.632143,64.061466L12.862769,63.947838L13.284133,63.736883L13.680065,63.636145L13.968616,63.451395L13.550317,63.479290L13.208910,63.465935L13.269722,63.242283L12.905936,63.228229L12.563393,63.276572Z M9.433708,64.440323L9.522075,64.521209L9.755122,64.537754L10.244715,64.462890L10.505896,64.301907L10.216952,64.246878L9.433708,64.440323Z M10.454555,63.510959L10.185132,63.714715L10.346137,63.829812L10.647594,63.698300L10.770850,63.463655L10.454555,63.510959Z M7.500753,65.659972L7.763777,65.551641L8.539200,65.239594L8.646952,65.089730L8.571079,64.982400L7.586039,65.453802L7.500753,65.659972Z "/><path d="M94.577478,17.480172L94.400163,17.754157L94.740643,17.852193L94.932283,18.007693L95.112742,18.249578L95.351837,18.296662L95.976372,18.337162L96.277954,18.414772L96.520934,18.501900L96.905823,18.492149L97.213663,18.546674L97.254987,18.682223L96.831177,18.809715L96.469719,19.028629L95.919282,19.160103L95.362904,19.119139L95.247186,19.159810L95.251654,19.472799L95.192911,19.588302L95.313383,19.701245L95.379138,19.932249L95.308830,20.030613L94.900473,20.206660L94.713786,20.340350L94.441444,20.671710L94.586652,20.887749L95.421162,21.026329L96.459156,21.216268L96.969989,21.365931L97.508983,21.316323L98.423351,21.101197L99.197959,20.958235L99.601333,20.948449L99.967478,20.990554L100.418265,20.915191L100.742186,20.934887L101.226949,21.074843L101.341529,21.294612L101.316673,21.532478L101.649693,21.353719L101.973062,21.225173L102.129451,21.092966L102.450541,21.019154L102.477155,21.155387L102.267778,21.357025L102.008171,21.687114L102.556260,21.520034L103.015563,21.218912L103.380424,21.055849L104.489849,20.773512L104.821485,20.604164L105.217218,20.538829L105.728507,20.485860L106.148756,20.358982L106.570749,20.272276L106.785065,20.346252L107.209937,20.283167L107.562733,20.102127L108.059729,19.931727L108.316946,19.884289L108.328892,19.975603L108.484850,20.125918L108.425325,20.461350L108.001090,20.773573L107.195811,21.022738L106.512771,21.165466L106.254560,21.001852L105.892369,21.133672L105.462676,21.400604L105.950137,21.480266L105.936464,21.655032L105.962141,22.048748L105.385234,22.543240L105.208390,22.761366L104.850717,23.306201L104.499933,23.549990L103.010957,24.165433L102.430996,24.396256L101.742841,24.492721L101.132687,24.477074L100.303001,24.537338L100.353370,24.319879L100.025773,24.229699L100.037604,23.931404L99.541117,23.961193L99.051129,24.114191L99.244001,24.244675L99.421897,24.512328L99.067291,24.657634L98.430880,24.956004L98.110360,25.072763L98.620690,25.096971L98.277694,25.376304L98.746176,25.376223L98.398393,25.667117L98.860603,25.668550L98.520611,25.938197L101.343894,25.938152L102.386750,25.108797L102.828084,25.103626L103.128204,24.820655L103.849379,24.246244L104.337102,24.244537L104.649707,23.998094L105.626607,23.995717L105.966463,23.712870L106.400543,23.708908L106.760777,23.418415L107.323739,23.423116L108.293731,22.588001L107.736301,22.592313L109.143730,21.470444L110.512963,20.361427L111.017398,20.355672L111.712213,19.805101L112.201281,19.803015L113.577833,18.725545L114.042698,18.728776L115.104670,17.899818L114.603569,17.901247L114.102917,17.901256L113.739295,18.176321L110.797981,18.165448L108.350343,18.169149L106.307443,18.173336L104.190072,18.175215L104.909192,17.631032L104.398646,17.630105L105.133974,17.078183L104.468203,17.079709L105.939549,15.986254L105.769708,15.981780L107.231619,14.896152L107.049158,14.895160L107.485797,14.566433L106.255136,14.742280L104.395940,15.070455L102.240102,15.544653L99.625681,16.177032L97.655421,16.716799L96.334171,17.037814L95.248144,17.251814L94.577478,17.480172Z M76.512006,24.155179L76.134605,24.412480L75.909998,24.745966L76.029747,24.828141L76.238486,24.928946L76.397833,24.984971L77.016231,24.794910L77.285200,24.702492L77.803306,24.607429L78.197002,24.629471L78.592444,24.763789L78.902728,24.963322L78.893554,25.207426L78.739803,25.399818L78.939629,25.391832L79.200356,25.450788L79.372093,25.636780L79.334667,25.840021L79.059929,26.108423L79.259054,26.181471L79.600093,26.054060L79.790569,25.891760L80.095306,25.738635L80.504847,25.611781L81.266775,25.419853L81.671395,25.404530L81.837994,25.533943L82.147657,25.481602L82.641664,25.274395L83.137659,25.020973L82.673006,24.900361L82.331683,24.877290L81.489355,24.814291L81.353403,24.723085L81.307095,24.590174L80.863690,24.551327L80.634518,24.443463L80.800693,24.241927L81.005038,24.001166L80.861422,23.959988L80.852978,23.797979L80.741581,23.738735L80.399709,23.730696L80.006144,23.807904L79.017725,24.082316L78.716966,24.138286L78.053575,23.974169L77.649134,23.828764L77.787913,23.670095L78.014415,23.446527L77.685325,23.453261L77.251013,23.667412L76.863665,23.975650L76.512006,24.155179Z "/><path d="M72.013923,52.927811L71.907336,53.095716L72.600487,52.758492L73.000489,52.560321L73.593019,52.537948L73.893215,52.406007L74.103782,52.504418L74.417019,52.538463L74.261988,52.831807L74.363016,53.089781L74.456990,53.095276L74.821055,52.922380L74.928491,52.472383L75.034512,51.987635L75.179153,51.767485L74.527905,52.009712L74.123429,52.024325L74.305632,51.781207L74.361778,51.660143L73.659859,51.936148L73.246081,52.046441L72.921911,52.227824L72.622054,52.501473L72.013923,52.927811Z M71.859180,51.545653L71.487141,51.934355L71.230267,52.229615L71.580875,52.115505L71.824469,52.084985L72.062583,52.188620L72.352720,52.011028L72.510817,51.757325L72.785899,51.646389L72.990506,51.772918L73.267793,51.597490L73.940453,51.344551L74.249097,51.095287L73.967571,51.051142L73.677550,51.142214L72.980708,51.338215L72.611269,51.260489L72.172439,51.369744L71.859180,51.545653Z M69.975654,51.893026L69.769051,52.024407L69.983908,52.090977L70.241919,51.883294L70.177093,51.877008L69.975654,51.893026Z M69.371814,51.781954L69.203149,51.954677L69.583901,51.925474L69.915653,51.705231L69.371814,51.781954Z M63.640728,54.304383L63.286162,54.597453L63.369470,54.777406L63.765143,54.787833L64.050289,54.878397L64.349197,54.793050L64.587597,54.677656L64.110330,54.517981L63.640728,54.304383Z M58.257904,54.066860L58.097633,54.227508L58.083382,54.342809L57.950539,54.574928L58.130488,54.702025L58.396934,54.712464L58.994007,54.614273L59.436181,54.459718L59.691881,54.257073L60.082047,54.091327L60.857840,53.913645L61.528630,53.873271L62.099068,53.918695L62.708937,53.798073L63.227631,53.735184L63.615416,53.837387L63.769278,53.613142L63.686605,53.400253L63.433753,53.394043L63.363768,53.279800L63.730976,53.181664L64.182064,53.021172L64.552496,52.883701L65.073180,52.653767L65.045457,52.801431L65.172455,52.881383L65.622875,52.773418L65.993408,52.727238L66.161371,52.615980L66.594209,52.454475L66.692721,52.506922L66.245455,52.873197L66.142441,52.988640L66.138603,53.191425L66.334531,53.173779L66.603649,53.035772L66.899290,52.759352L67.183058,52.532802L67.397965,52.403134L67.719005,52.280571L67.789542,52.378467L68.184665,52.248977L68.275441,52.289409L68.405995,52.453295L68.772511,52.363839L69.099601,52.407388L69.167055,52.277433L68.970710,52.105769L68.788968,52.029515L68.994120,51.721146L69.449174,51.508552L69.976651,51.240589L70.327396,50.878486L70.606138,50.721728L71.012379,50.518886L71.341656,50.471533L71.558015,50.491122L71.389211,50.689919L70.876528,50.938262L70.648262,51.129710L70.351928,51.318200L70.332582,51.406534L70.937506,51.418205L71.589051,51.239032L72.098027,51.020289L72.470957,51.018930L72.540704,51.091640L72.873813,51.064414L73.098790,50.884592L73.313517,51.014555L73.585585,50.904819L73.677527,50.814314L74.119287,50.577708L74.558148,50.446343L75.099175,50.310167L75.435899,50.173067L75.776491,49.933177L76.052664,49.895750L76.287581,49.898388L76.671975,49.729050L76.862502,49.775238L76.872703,49.895947L76.562753,50.073692L76.203891,50.396982L75.841904,50.535410L75.749280,50.689269L75.859947,50.677968L76.386339,50.492949L76.441252,50.460423L77.347132,49.606299L76.543823,49.606309L76.885734,49.286644L77.051307,49.286640L78.273481,48.136171L78.028836,48.133120L78.659298,47.559225L79.474523,47.550613L79.792458,47.258117L80.627128,47.258103L80.959161,46.950698L81.599850,46.958624L81.909170,46.672343L82.271218,46.671795L82.466384,46.486014L82.378198,46.374566L81.353151,46.721472L80.111223,47.103746L79.037495,47.383308L78.277624,47.702281L77.672848,47.870201L77.275694,48.050846L76.599839,48.278512L76.284705,48.521882L75.588431,48.965416L74.978279,49.285102L75.041946,49.363542L75.088844,49.508633L74.779132,49.671210L74.611374,49.690442L74.085493,49.614874L74.261714,49.406743L74.552280,49.146122L74.134644,49.146889L73.584364,49.186062L72.596397,49.382103L71.719283,49.552798L71.421326,49.594510L70.965574,49.793253L70.407716,49.937929L70.068266,50.080056L69.666613,50.210020L68.890205,50.571533L67.855245,51.040332L67.381108,51.293261L66.584549,51.610496L66.182053,51.770645L66.087093,51.955154L65.536854,52.044456L65.298480,52.018945L64.617246,52.200758L64.366997,52.519208L63.985782,52.718948L63.685225,52.786118L63.738986,52.492213L63.134930,52.441347L62.752408,52.498204L62.282983,52.688655L61.898606,52.736092L61.530240,52.866400L61.024433,52.993062L60.922279,52.859962L60.407526,52.988954L60.146653,53.230650L59.438956,53.647347L59.051098,53.842699L58.631100,53.929030L58.257904,54.066860Z M54.560186,55.897417L54.606410,55.971879L55.380845,55.921137L56.040306,55.804080L56.353942,55.843516L57.083386,55.508413L57.457274,55.287770L57.303501,55.279638L57.038986,55.380152L56.482147,55.590043L56.110698,55.603255L55.679133,55.656221L55.044993,55.779568L54.560186,55.897417Z M53.834294,55.418165L53.470163,55.632562L53.362003,55.901123L53.819126,55.837064L53.794373,55.927752L54.158043,55.814556L54.945391,55.667974L55.696809,55.378288L55.801092,55.040553L55.419663,55.028120L54.462055,55.316097L54.238474,55.295207L53.834294,55.418165Z M52.669476,56.099873L52.574950,56.189132L52.633636,56.251847L52.658758,56.273785L53.013446,56.157009L52.855999,56.059077L52.669476,56.099873Z "/><path d="M122.792251,25.430047L119.698245,26.862371L121.140455,26.876767L122.434314,26.876800L122.718829,26.642151L129.001009,25.263310L130.640312,24.905606L132.529426,24.893802L134.267429,24.910047L134.791775,24.461746L137.435367,24.429543L139.070034,23.015319L140.257029,21.925903L138.354177,21.925038L138.141340,21.660952L135.425645,21.654910L135.457449,21.606217L134.114822,21.609362L131.499949,21.585925L129.667667,22.329134L128.792464,22.724036L128.329787,22.651852L128.399733,22.482102L127.870246,22.492012L127.490536,22.738819L126.926996,22.754189L126.228081,23.322385L125.790721,23.322369L125.129509,23.859575L123.605535,23.875571L123.072158,24.425320L122.553246,24.844064L123.003809,24.858480L122.820464,25.004678L123.311573,24.990272L122.792251,25.430047Z "/><path d="M95.264065,44.605488L94.948657,44.866608L95.198325,44.882628L95.355083,44.973489L95.083935,45.405433L94.616177,45.834857L94.813940,45.948188L94.885268,46.115941L94.648757,46.358569L94.741295,46.712551L94.463653,46.917087L94.848451,46.891330L95.164032,46.703444L95.440267,46.614351L95.784670,46.442300L95.979654,46.414528L96.270735,46.329804L96.635294,46.221821L96.800270,46.219999L97.175486,45.857303L97.268278,45.675640L97.646249,45.551193L97.842593,45.569433L97.659632,45.899247L97.916332,45.842452L98.240990,45.699303L98.815648,45.490865L99.344758,45.395411L99.513495,45.285007L99.412667,45.208943L99.674734,44.974180L100.032265,44.945817L100.409157,44.892041L100.726266,44.752651L101.013677,44.552148L101.330385,44.327307L101.528028,44.376836L101.598961,44.685271L101.928408,44.545902L102.042177,44.263480L102.419516,44.063829L102.915973,43.840145L103.016176,43.740300L102.665556,43.696115L102.587669,43.590141L102.657508,43.392674L103.094529,43.327833L103.481760,43.174855L103.274518,43.029221L103.636733,42.754303L103.495136,42.646646L103.566832,42.554760L103.099009,42.765514L102.834390,42.747566L102.561705,42.891782L102.226419,43.030282L102.215108,42.950967L102.324217,42.812842L102.584325,42.697675L102.853859,42.516706L102.891496,42.373973L103.288593,42.269398L103.737658,42.159583L103.987124,42.038709L104.233081,42.071576L104.573020,42.018856L105.015748,41.975837L105.344147,41.857874L105.734603,41.909753L106.060402,41.766149L106.191921,41.590689L106.067705,41.307493L105.859859,41.241604L105.859481,41.145261L105.532441,41.212200L105.528961,41.037175L105.369404,41.054674L105.284012,41.161280L105.058516,41.268882L104.926858,41.283210L104.816866,41.225840L104.978509,41.041688L105.273084,40.876803L105.645591,40.722005L106.014522,40.500484L106.146660,40.336023L105.819264,40.402105L105.548641,40.398210L105.339641,40.457823L105.001577,40.651024L104.800847,40.899364L104.525613,40.930176L104.208051,41.095375L103.922023,41.131770L103.592904,41.335244L103.165019,41.446966L102.841415,41.609141L102.399883,41.776260L102.180023,41.930360L101.861892,42.003234L101.621005,42.115949L101.301852,42.274133L101.368544,42.343214L101.349336,42.522541L100.945612,42.687399L100.834130,42.553178L100.580470,42.671982L100.520594,42.779318L100.060340,42.876907L99.909882,42.841595L99.702085,42.889289L99.073678,43.102213L98.668388,43.493048L98.357505,43.627202L97.857766,43.601187L97.535319,43.669864L97.060505,43.823864L96.697431,43.893410L96.219121,44.104848L95.776454,44.336819L95.264065,44.605488Z M91.728994,47.801953L91.920043,47.865112L92.492662,47.616121L92.839511,47.523079L93.510338,47.544376L94.106039,47.592942L94.638922,47.418173L94.776267,47.308864L94.414552,47.286550L94.388248,47.133333L94.058351,47.160752L93.239283,47.179789L92.440342,47.460036L91.728994,47.801953Z M87.210966,49.832727L87.119772,50.000956L87.420481,50.037097L87.583623,49.942718L87.816191,49.749088L88.110574,49.525686L87.971258,49.469253L87.526682,49.686477L87.210966,49.832727Z M85.514858,48.964129L85.314708,49.150671L85.355409,49.246768L85.607123,49.167096L85.784840,49.006268L85.724268,48.892121L85.514858,48.964129Z M89.637842,45.045537L89.372992,45.291485L90.345681,45.303724L90.533540,45.225965L90.749384,45.004191L91.085673,44.707444L91.252574,44.490462L91.786170,44.339479L92.101762,44.357890L92.349598,44.318938L92.530812,44.068650L92.908988,44.036309L93.437416,43.987833L93.763727,43.706124L94.092722,43.628982L94.246177,43.522364L94.587193,43.221018L94.794124,43.277254L95.025450,43.430936L95.362033,43.284797L95.631274,43.065468L96.239059,42.926448L96.472370,42.795527L96.504769,42.628974L96.909850,42.476631L97.402174,42.381239L97.604081,42.461834L98.138026,42.409556L98.527090,42.298491L99.023989,42.169171L99.481231,42.029475L99.965629,41.766702L100.325363,41.534669L100.664464,41.291785L101.033098,41.163801L100.991041,40.999277L101.359295,40.824139L101.562810,40.806953L101.847667,40.593737L102.183478,40.424317L102.481385,40.436515L102.957442,40.329992L103.229440,40.172580L103.587926,40.098611L103.818830,39.987356L104.190417,39.724668L104.494222,39.616332L104.094723,39.609780L103.661974,40.013530L102.719519,40.015264L102.406190,40.306149L101.136618,40.307466L100.462717,40.931103L100.184716,41.072709L99.978287,41.069646L99.681746,41.262663L99.410415,41.264498L99.308283,41.357456L98.893827,41.358186L98.789559,41.452551L98.019465,41.498668L97.691181,41.681968L97.267355,41.681301L97.109907,41.826170L96.823240,41.825868L96.648406,42.109894L96.425525,42.313609L96.294446,42.312478L95.672388,42.889538L95.353417,42.905945L95.191438,43.055008L94.851215,43.146713L94.441218,43.152827L94.230139,43.350934L94.088813,43.348325L93.775904,43.589004L93.435351,43.589545L93.429844,43.720594L92.961591,43.972343L93.039582,43.824669L92.680688,43.871071L92.250113,44.122624L91.674513,44.079948L90.994229,44.374725L90.748632,44.618054L90.347031,44.711283L90.051347,44.852725L89.838788,45.048524L89.637842,45.045537Z "/><path d="M151.672679,43.175142L151.610195,43.313986L152.021176,43.229334L152.322460,43.062925L152.522241,43.239267L152.783925,43.163646L152.855271,43.344365L153.343927,43.409964L153.489840,43.329514L153.591597,43.439225L153.518029,43.606344L153.242885,43.772425L153.297836,43.883738L153.812272,43.812785L153.867562,43.465129L154.002522,43.001758L153.952449,42.475087L154.162798,41.970498L151.672679,43.175142Z M149.600278,42.426188L149.405011,42.679239L149.018210,43.211610L148.754201,43.531576L148.442586,44.111346L148.247810,44.467034L147.503046,45.031855L147.112475,45.470369L147.025004,45.761095L147.226347,45.735917L147.464326,45.630931L147.693598,45.546208L147.799604,45.452980L148.064673,45.380274L148.500462,45.217265L148.998221,44.942725L149.416867,44.819494L149.589447,44.938248L149.691160,44.926578L149.959258,44.790201L149.923782,44.600319L150.273538,44.208599L150.676802,43.925158L150.829749,43.786339L150.835936,43.530941L151.196321,43.121170L151.285667,42.760328L151.314441,42.486121L151.342123,42.316196L151.318387,42.214887L151.494648,42.053900L151.344472,41.988807L150.476532,42.149697L150.282899,42.294340L149.600278,42.426188Z M145.004384,42.356638L144.631724,42.719913L144.766103,42.821962L144.696296,42.964933L144.853243,43.036549L144.852940,43.039660L145.763316,43.025521L146.602108,42.470038L146.866161,42.705607L147.192736,42.867877L147.573050,43.263175L148.030760,43.266210L148.400844,43.197145L148.575629,42.862680L148.898740,42.736453L149.199274,42.350124L148.951327,42.178065L148.545763,42.148697L148.197886,41.907684L147.842520,41.696438L147.833703,41.512727L147.503890,41.602726L147.152964,41.546172L146.745639,41.585102L146.407499,41.629843L146.158709,41.627654L145.882411,41.974848L145.558992,42.093963L145.255369,42.160580L145.004384,42.356638Z M143.934062,39.783043L143.894654,39.814610L143.994021,39.990844L144.115930,40.275274L144.031215,40.436181L144.185961,40.504183L144.425727,40.824045L144.598612,40.955289L144.835777,41.141711L145.094517,41.119716L145.178715,41.232869L145.144975,41.413383L145.371059,41.556963L145.238054,41.738258L145.516677,41.743387L145.666483,41.651990L145.749029,41.542074L145.956575,41.412362L146.189649,41.460096L146.672239,41.419618L147.161164,41.325718L147.463520,41.199685L147.787842,41.196082L148.330221,41.143074L148.300618,41.386057L148.592603,41.366926L148.848057,41.339157L149.072732,41.124575L149.264928,40.799012L149.721193,40.796777L149.745191,40.515299L149.875638,40.410026L149.677340,40.276835L149.761192,40.135253L149.363684,39.988335L149.930529,39.601351L150.443065,39.497171L150.296327,39.430152L150.592051,39.174745L150.426046,39.072378L150.673341,38.781166L150.406720,38.552226L150.007005,38.536386L149.928486,38.435670L149.375783,38.352823L149.166676,38.253998L148.608490,38.578458L147.956994,38.600180L147.796166,38.666541L146.320118,39.120316L145.546327,39.430045L145.336899,39.438858L143.934062,39.783043Z "/><path d="M144.852940,43.039660L144.833290,43.243365L144.699174,43.533271L144.545122,43.731202L144.527910,43.957105L144.712236,43.969121L144.686397,44.108922L144.783346,44.294062L144.757894,44.464946L144.573113,44.757067L144.502727,44.889512L144.226594,45.093276L144.166296,45.265275L144.361325,45.277012L144.221874,45.422757L143.860245,45.559115L143.554342,45.855983L143.613404,45.878285L144.173537,45.807904L144.370929,45.686491L144.645173,45.484429L144.831451,45.604355L144.951106,45.770657L144.472497,46.035938L144.222346,46.208656L144.064616,46.293995L143.872230,46.377642L143.873878,46.613668L144.110126,46.656503L144.159651,46.765939L144.204579,46.972424L144.348694,46.930013L144.253779,47.183973L144.198016,47.432339L144.126887,47.744451L144.051365,48.004460L144.095550,48.177835L143.974551,48.396234L143.991268,48.513657L144.094304,48.661002L144.244152,48.554284L144.501761,48.325552L144.745553,48.056170L145.035612,47.716724L145.204320,47.450365L145.408849,47.349680L145.695355,47.067336L145.882858,46.822713L146.088609,46.501161L146.301952,46.176357L146.423396,45.923171L147.018987,44.947847L147.431796,44.585917L147.834611,44.155031L148.363730,43.268372L148.400844,43.197145L148.030760,43.266210L147.573050,43.263175L147.192736,42.867877L146.866161,42.705607L146.602108,42.470038L145.763316,43.025521L144.852940,43.039660Z "/><path d="M146.202465,0.000000L145.370560,0.194836L144.945541,0.335171L143.704921,0.763397L142.631345,1.116941L141.402124,1.417964L140.612216,1.548014L139.798436,1.585482L139.218098,1.659421L138.571174,1.667180L138.086500,1.592379L138.211108,1.420168L136.772446,1.661159L135.882551,1.924030L134.446422,2.364867L132.278535,2.911822L130.839457,3.151894L130.194571,3.133548L129.631270,3.054252L128.109458,3.430178L127.188501,3.742792L125.777641,4.259375L124.856440,4.573106L124.278613,4.838204L123.544266,5.216707L122.741091,5.770069L121.979702,6.147571L120.417816,6.701866L119.057732,7.077981L117.993189,7.291380L117.299621,7.331197L116.121421,7.437816L114.710866,7.520964L113.832938,7.482452L113.155139,7.467949L112.576742,7.916377L111.992222,8.262348L111.458504,8.546267L111.003601,8.788880L110.225730,8.901713L109.345224,9.111965L109.886695,9.122884L110.364088,9.259751L110.589345,9.468738L110.504643,9.716497L110.610618,9.811676L110.956165,9.872294L111.449753,10.064469L113.470981,10.076190L114.341178,9.449595L117.754729,9.445874L118.534477,9.433528L118.826928,9.223235L120.486509,9.250516L120.196448,9.462654L121.303376,9.470238L121.588711,9.258550L122.580805,9.259123L122.305074,9.468947L124.575884,9.472536L124.838806,9.265464L125.774122,9.275373L125.504509,9.482610L128.861831,9.497648L129.295715,9.479495L131.477815,9.502186L131.118129,9.778569L133.299258,9.747792L132.884273,10.062541L135.088416,10.058867L134.975280,10.145846L140.386095,10.146368L142.444184,10.141798L147.390557,10.151275L153.549243,10.148101L156.826929,10.147347L158.707820,8.642615L160.121500,8.613243L162.681103,8.591486L165.004883,8.620380L167.205065,8.643319L170.410078,8.616449L174.745449,5.116770L174.413840,4.999907L173.947974,4.966738L173.659206,4.681213L173.150275,4.534638L172.860839,4.357514L172.559780,4.297377L172.609252,4.171751L172.261970,3.917174L171.859745,3.779212L171.457883,3.590222L171.027335,3.668888L170.868998,3.628263L169.870172,3.696694L168.780204,3.898543L168.313116,3.939145L167.546475,4.145342L167.321048,4.106356L167.008978,4.152482L166.489906,4.070420L166.072712,3.933868L165.828088,3.791054L165.613658,3.545233L165.172433,3.622288L164.964060,3.566450L164.204995,3.484892L163.339518,3.485274L162.944673,3.600585L162.586097,3.576493L162.630378,3.420171L162.101170,3.476520L161.462093,3.383309L161.533234,3.162278L161.394038,3.099521L160.978426,2.997426L160.462723,3.128812L160.237516,3.101300L160.397248,2.964752L160.252155,2.751592L159.640628,2.761340L159.310041,2.584790L158.798647,2.487158L158.080750,2.547463L157.843959,2.509641L157.075883,2.723845L156.471141,2.786674L156.383674,2.662772L156.147707,2.596953L155.549264,2.652044L155.271397,2.659125L154.892966,2.740321L154.298230,2.915239L154.122847,2.839623L153.776345,2.748535L153.259869,2.733223L153.552597,2.531453L153.821378,2.398855L153.250781,2.352503L153.105177,2.288746L152.682627,2.235503L152.431553,2.191682L152.621480,1.991992L152.956633,1.949728L153.160830,1.810489L153.729438,1.658394L153.783038,1.570907L153.471037,1.469087L152.948723,1.399336L152.485275,1.393993L152.279762,1.306828L151.889738,1.278903L151.326144,1.375337L150.752446,1.395273L150.253071,1.388498L149.256667,1.709650L149.071060,1.580159L148.794684,1.551014L148.448724,1.566889L148.865237,1.219462L149.205021,1.026033L148.896405,0.672034L148.712031,0.615066L147.969035,0.812194L147.372651,1.065132L146.803358,1.224905L146.630236,1.387943L146.333962,1.503505L145.836011,1.551306L145.490004,1.486956L145.650490,1.290660L145.912255,1.152622L146.433175,1.090606L146.710523,0.987817L147.306028,0.846317L147.484923,0.742789L147.636511,0.534392L147.033390,0.470976L146.655126,0.498309L146.838992,0.326639L146.382263,0.274998L146.041363,0.166785L146.202465,0.000000Z "/><path d="M120.775663,31.970083L120.552458,32.085742L121.144942,32.007855L121.251864,32.048984L121.460067,32.253847L121.512242,32.467140L121.378848,32.505223L122.002735,32.808127L122.462137,32.815161L122.637323,32.999926L122.210254,33.377122L122.960086,33.380139L123.365985,33.010465L124.071982,32.995686L125.197573,31.961946L126.200699,31.102737L124.364027,31.108266L124.450128,30.918688L124.146505,30.916087L122.707799,31.227539L121.994127,31.627182L121.572589,31.768725L120.926202,31.855153L120.775663,31.970083Z "/><path d="M82.272616,30.508658L82.040152,30.819953L82.143724,30.886468L82.525309,30.733395L82.811356,30.679437L82.842723,30.748700L82.956204,30.898509L82.682943,31.027761L82.390310,31.089048L82.164970,31.181044L81.998838,31.497015L82.123093,31.486046L82.408060,31.589817L82.179044,31.755425L81.795622,32.050594L81.826570,32.199707L82.031238,32.230100L82.201986,32.242750L82.716301,31.948000L82.946827,32.010279L82.877214,32.198813L82.949065,32.307908L82.561094,32.467314L82.256178,32.590123L82.283831,32.745778L83.294972,32.561885L83.738659,32.573191L83.803972,32.699000L84.739969,32.542965L85.080807,32.429919L85.310976,32.258825L85.176103,32.233918L85.479821,32.006101L85.583766,32.086941L86.110441,31.870577L86.426016,31.812123L86.403453,31.705141L86.892598,31.283708L87.396722,31.299006L87.597642,31.401545L88.005587,31.338350L88.173357,31.186374L88.757351,30.915533L89.270483,31.030320L89.669275,30.929213L90.284794,30.867614L90.695042,30.723749L91.373953,30.678697L91.238594,30.850507L91.668019,30.803290L92.295005,30.938628L92.640216,30.919782L93.301582,30.764939L94.077538,30.638062L95.010441,30.537566L95.786094,30.255770L96.444148,30.082922L96.975125,30.012215L97.829200,29.819677L98.164371,29.848264L98.288898,29.778439L97.729237,29.655439L97.876220,29.401063L96.933740,29.394140L97.958979,28.562641L97.624382,28.555181L99.005844,27.436906L100.530256,26.309614L101.063524,25.982835L101.343894,25.938152L98.520611,25.938197L98.860603,25.668550L98.398393,25.667117L98.746176,25.376223L98.277694,25.376304L98.620690,25.096971L98.110360,25.072763L97.527234,25.285208L97.250545,25.314349L96.982875,25.480480L96.658074,25.590524L96.073545,25.790460L95.340295,25.857014L95.210637,25.541227L95.020869,25.522434L95.028501,25.289596L94.688922,25.260354L94.403624,25.131251L94.007092,25.166146L93.230448,25.323797L92.452235,25.613979L91.885924,25.907402L91.082149,26.290318L90.524786,26.606795L90.329797,26.782575L90.121599,26.999195L89.700549,27.086886L89.230619,27.281764L88.809979,27.527863L87.988251,27.836977L86.923051,28.307129L85.803067,28.772776L85.253053,29.046419L84.896987,29.351204L84.769104,29.639746L84.684596,29.728415L84.185186,29.798068L83.937915,29.721640L83.408981,29.836707L83.324316,29.990861L82.918222,30.129268L82.272616,30.508658Z "/><path d="M80.236741,33.883558L79.980610,33.984051L79.950138,34.128652L80.142338,34.154540L80.352584,34.157907L80.733419,34.046173L81.047244,34.011386L81.065407,34.059453L80.691132,34.245657L80.510463,34.280386L80.249850,34.370138L80.282699,34.646835L80.585797,34.832201L80.794937,34.824054L80.752317,35.026897L80.870472,35.144112L80.737274,35.480986L80.885279,35.651411L81.026869,35.833581L80.790926,35.930866L80.606665,36.021483L80.446965,36.315995L80.799766,36.454481L81.172608,36.481775L82.031933,36.434232L82.899351,36.317832L83.768696,36.108996L84.178238,36.023233L84.510028,35.896265L84.801423,35.897740L85.092357,35.883250L85.366348,35.711384L85.545632,35.542970L85.750774,35.373112L86.033274,35.227220L86.205687,35.251561L86.138183,35.617907L86.008221,35.911995L85.910428,36.069050L85.794372,36.302480L85.616541,36.804409L85.455982,36.966759L85.391175,37.243243L85.279548,37.493603L84.966340,37.569095L84.677665,37.687808L83.943761,38.000861L83.474699,38.281151L83.298003,38.547752L83.209352,38.816405L83.090456,39.155786L82.632044,39.641262L82.050212,40.014278L81.434440,40.167059L80.822000,40.302054L81.036171,40.440441L81.638366,40.422826L81.536560,40.625083L82.284187,40.426698L82.954960,40.242783L83.299813,40.011331L83.229606,40.010877L83.568366,39.718083L84.289282,39.722243L84.486830,39.666058L85.116147,39.116757L85.530480,39.115960L85.834428,38.847928L85.983518,38.845218L86.656880,38.256706L87.097854,38.254339L87.430415,37.964935L87.879044,37.954837L88.198715,37.675391L88.342996,37.676449L89.019716,37.092884L89.463886,37.093578L90.137332,36.518595L90.730982,36.510942L91.404996,35.940467L91.831593,35.924634L92.480174,35.379175L92.640569,35.380167L92.975492,35.098565L93.416322,35.094199L94.085505,34.521736L94.531968,34.523797L94.867230,34.246928L95.027875,34.246594L95.704811,33.675226L96.167412,33.674439L96.508123,33.389370L96.934708,33.386540L97.294002,33.085153L97.457856,33.086065L97.780024,32.821821L99.033350,32.828826L100.464690,32.821002L100.167703,33.080817L100.625933,33.084715L100.955998,32.795983L101.408728,32.795911L101.750221,32.502608L102.640904,32.503742L102.306357,32.793002L102.964964,32.810509L105.341689,32.808199L109.231622,32.810282L111.730839,32.805120L112.488641,32.054466L113.598854,31.098965L114.766192,31.106952L118.053901,28.266491L117.887696,28.266881L117.552019,28.549175L116.745239,28.547227L116.421968,28.822037L115.546971,28.832503L115.208079,29.133129L112.907351,29.134903L110.310955,29.133073L106.859498,29.132486L107.248059,28.805293L106.116691,28.826056L103.559671,28.842184L103.221924,29.125502L101.397537,29.124465L101.046636,29.406589L97.876220,29.401063L97.729237,29.655439L98.288898,29.778439L98.164371,29.848264L97.829200,29.819677L96.975125,30.012215L96.444148,30.082922L95.786094,30.255770L95.010441,30.537566L94.077538,30.638062L93.301582,30.764939L92.640216,30.919782L92.295005,30.938628L91.668019,30.803290L91.238594,30.850507L91.373953,30.678697L90.695042,30.723749L90.284794,30.867614L89.669275,30.929213L89.270483,31.030320L88.757351,30.915533L88.173357,31.186374L88.005587,31.338350L87.597642,31.401545L87.396722,31.299006L86.892598,31.283708L86.403453,31.705141L86.426016,31.812123L86.110441,31.870577L85.583766,32.086941L85.479821,32.006101L85.176103,32.233918L85.310976,32.258825L85.080807,32.429919L84.739969,32.542965L83.803972,32.699000L83.738659,32.573191L83.294972,32.561885L82.283831,32.745778L82.291371,32.787929L82.125326,33.037096L81.835235,33.252403L81.800136,33.344205L81.663085,33.495594L81.397972,33.543784L80.762592,33.787695L80.236741,33.883558Z M73.443179,35.152337L73.378831,35.386296L73.163680,35.583764L73.333919,35.669006L73.528450,35.844237L73.759944,35.918697L73.918077,36.091991L74.108514,36.208059L74.371235,36.313300L74.724885,36.339233L74.846069,36.429267L74.810132,36.632450L75.184780,36.546676L75.437139,36.335768L75.827342,36.229710L76.140253,36.236038L76.485322,36.134050L76.579163,36.190171L76.995090,36.108373L77.302211,35.958646L77.308237,35.739483L77.301717,35.585827L77.643525,35.392858L77.657111,35.262098L77.897114,35.147942L77.950780,35.021838L78.283889,34.836821L77.971617,34.668512L77.483166,34.747522L77.508117,34.589380L77.669594,34.360256L77.244628,34.518367L76.776270,34.629567L76.613528,34.516234L76.354023,34.607433L76.009033,34.748298L75.795196,34.721467L75.247421,34.915107L75.228511,34.977864L74.994821,35.107808L74.767351,35.093806L74.391755,35.038324L73.870775,35.038129L73.443179,35.152337Z M61.204100,33.476426L60.907866,33.626993L60.381142,34.142766L60.588886,34.314408L60.779614,34.696417L61.237187,34.764405L61.579098,34.820494L61.782147,34.690734L61.613577,34.538369L61.317555,34.441071L60.990127,34.096062L61.191636,33.807803L61.204100,33.476426Z "/><path d="M109.713929,37.978990L109.419360,38.199522L109.409395,38.369906L109.255486,38.647342L109.561850,38.828965L110.316262,38.676388L110.607653,38.319628L110.865460,38.387526L110.993626,38.396897L111.374463,38.428516L111.747134,38.381139L111.931096,38.351211L112.196211,38.235396L112.266497,38.111253L112.589845,38.026225L112.709701,38.154946L112.862794,38.110594L113.337500,37.841400L113.622520,37.645447L113.873410,37.608656L113.804535,37.722337L113.643081,37.984317L113.753070,37.988956L114.028342,37.796927L114.277279,37.713571L114.470482,37.573630L115.171335,37.274663L115.773551,37.029598L116.206400,36.826164L116.436901,36.794750L116.454454,37.006280L116.739850,36.776551L117.109502,36.684865L117.262382,36.776342L117.546556,36.563702L117.416032,36.474823L117.670934,36.293764L118.112636,36.123450L118.112831,36.348269L118.513676,36.228284L118.880037,36.007277L119.236890,35.908506L119.363419,35.996048L119.659375,35.958633L119.751323,36.054830L120.001852,35.960737L120.258250,35.987552L120.260595,35.993823L120.588443,35.932154L121.235201,35.380396L122.299953,34.406835L122.036768,34.405306L123.190815,33.377962L122.960086,33.380139L122.210254,33.377122L122.637323,32.999926L122.462137,32.815161L122.002735,32.808127L121.378848,32.505223L121.006521,32.611515L120.788988,32.701476L120.350095,32.902206L120.078137,32.864942L119.903768,32.828803L119.981719,32.424738L119.873988,32.385207L119.517224,32.478140L118.743733,32.708881L117.952440,32.987339L117.287586,33.203765L116.719337,33.261819L116.309195,33.381157L116.125324,33.455450L115.996348,33.707135L115.845790,33.948972L115.659901,34.164398L115.198830,34.523529L114.990737,34.571760L114.674653,34.821895L114.265543,35.099669L113.378502,35.474754L112.765249,35.773012L112.327893,36.077236L111.916883,36.320356L111.499567,36.569567L111.510622,36.844760L111.633051,36.975130L112.134998,36.971128L112.700444,36.809484L112.692564,37.030525L112.171485,37.220638L111.508606,37.385204L110.727128,37.568799L110.187078,37.725922L109.713929,37.978990Z M113.382391,34.424851L113.061930,34.675704L113.474728,34.587662L113.905773,34.348776L114.207149,34.197969L114.010863,34.116300L113.382391,34.424851Z M105.672857,37.839694L105.599216,38.024278L105.641417,38.059121L106.007246,38.026268L106.280943,37.869107L106.251156,37.745637L106.055351,37.745222L105.672857,37.839694Z M102.226673,38.284753L101.582564,38.871442L101.715816,38.874895L100.459115,40.014114L100.280565,40.307506L101.136618,40.307466L102.406190,40.306149L102.719519,40.015264L103.661974,40.013530L104.094723,39.609780L104.494222,39.616332L104.620753,39.571213L104.625859,39.435598L104.602520,39.291289L104.540163,39.143883L104.257961,39.127520L104.272692,38.881436L104.010270,38.890029L103.620907,38.919163L103.319364,38.887616L103.205519,38.717315L103.406581,38.553182L103.650451,38.406286L103.959478,38.169808L104.340559,38.038614L104.635963,37.846693L104.899415,37.778401L105.130815,37.715643L105.446145,37.697242L105.694662,37.584369L105.828650,37.319104L106.059635,37.287691L106.345516,37.277304L106.559951,37.140916L106.709671,37.030684L107.072702,37.010454L107.291085,37.045728L107.491993,37.023412L107.790196,36.950632L108.191837,36.827074L108.501016,36.629394L108.812354,36.365632L109.106532,36.197033L109.354481,36.218451L109.929845,36.068381L110.160293,35.910179L110.721642,35.644570L111.026518,35.427900L111.160880,35.242097L111.305543,35.121100L111.524813,35.004724L112.022602,34.851929L112.323678,34.661094L112.864315,34.501629L112.767633,34.434127L112.911734,34.238689L113.328489,34.025141L113.795385,33.892407L114.344321,33.621897L114.929378,33.420106L115.347449,33.457453L115.460457,33.385097L115.563058,33.127924L115.664927,32.985673L116.053249,32.819205L116.585543,32.617455L117.056149,32.468458L117.384551,32.471410L117.739464,32.372911L117.979915,32.351757L118.230744,32.229607L118.703307,31.975636L119.022587,31.862143L119.235241,31.671658L118.331273,31.667901L118.959489,31.110507L114.766192,31.106952L113.598854,31.098965L112.488641,32.054466L111.730839,32.805120L111.414891,33.083451L110.207712,34.242746L109.860632,34.248307L108.559457,35.398679L108.235682,35.402359L106.993092,36.517301L106.666261,36.516854L106.337381,36.810357L105.894877,36.812014L105.248006,37.396659L104.810714,37.398394L104.492779,37.691795L103.730901,37.700488L103.101670,38.279609L102.226673,38.284753Z "/><path d="M148.973038,46.697370L148.791867,46.659550L148.786077,47.066195L148.301095,47.679529L148.620719,47.659603L148.904446,47.687045L149.473233,47.469913L149.771108,47.456897L150.052569,47.513472L150.524093,47.386233L150.854420,47.193821L151.018805,46.987859L150.854290,46.808764L150.906960,46.594997L150.708476,46.504802L150.882402,46.086526L150.799642,45.821995L150.231194,45.832214L150.098186,46.105187L149.386295,46.239142L148.973038,46.697370Z M151.610195,43.313986L151.555308,43.436222L151.222139,43.733890L151.223211,43.889597L151.337138,44.051882L151.170982,44.245012L150.958233,44.597684L150.715324,44.811558L150.377352,45.022690L150.323853,45.303367L150.558528,45.460704L150.829055,45.379464L150.898515,45.550015L151.368606,45.678095L151.317131,45.864831L151.160994,46.327202L151.477017,46.661576L151.372826,46.809098L151.712140,46.851498L152.035751,46.724678L152.703267,46.241528L153.034992,46.208707L153.700570,45.668527L152.996087,45.519758L153.676830,45.113458L153.782222,44.664966L153.760865,44.142034L153.812272,43.812785L153.297836,43.883738L153.242885,43.772425L153.518029,43.606344L153.591597,43.439225L153.489840,43.329514L153.343927,43.409964L152.855271,43.344365L152.783925,43.163646L152.522241,43.239267L152.322460,43.062925L152.021176,43.229334L151.610195,43.313986Z "/><path d="M85.801898,47.308478L85.556213,47.446844L85.988470,47.429776L86.271641,47.464580L86.534013,47.395120L86.376226,47.257382L86.224319,47.200164L85.801898,47.308478Z M78.659298,47.559225L78.028836,48.133120L78.273481,48.136171L77.051307,49.286640L76.885734,49.286644L76.543823,49.606309L77.347132,49.606299L76.441252,50.460423L76.666302,50.327156L77.171413,50.196156L78.420561,49.788478L78.682117,49.517068L79.337165,49.393800L79.762869,49.365529L80.012434,49.368076L80.182221,49.245390L80.467328,49.296753L80.727998,49.246378L81.077541,49.007819L81.383447,48.770937L81.763631,48.639674L82.407700,48.444542L82.400773,48.228851L82.265661,48.155170L82.004249,48.086908L81.828312,48.067802L82.273165,47.777727L82.592749,47.642698L82.872433,47.596112L82.919773,47.646796L83.213218,47.664812L83.681071,47.610851L83.878565,47.679014L84.221827,47.483951L84.275113,47.305777L84.423507,47.047548L84.856575,46.954318L84.984225,47.013891L84.943459,47.161351L85.168631,47.121391L85.438641,47.136342L85.650471,47.047267L85.574705,46.843583L85.843882,46.673300L86.246283,46.590199L86.659516,46.501073L86.811338,46.621550L87.351234,46.387386L87.620118,46.231448L88.008740,46.111164L88.215367,46.186913L88.858137,45.884880L89.056876,45.861828L89.252245,45.893218L89.742354,45.610330L90.021956,45.437737L90.345681,45.303724L89.372992,45.291485L89.637842,45.045537L89.838788,45.048524L90.051347,44.852725L90.347031,44.711283L90.748632,44.618054L90.994229,44.374725L91.674513,44.079948L92.250113,44.122624L92.680688,43.871071L93.039582,43.824669L92.961591,43.972343L93.429844,43.720594L93.435351,43.589545L93.775904,43.589004L94.088813,43.348325L94.230139,43.350934L94.441218,43.152827L94.851215,43.146713L95.191438,43.055008L95.353417,42.905945L95.672388,42.889538L96.294446,42.312478L96.425525,42.313609L96.648406,42.109894L96.823240,41.825868L97.109907,41.826170L97.267355,41.681301L97.691181,41.681968L98.019465,41.498668L98.789559,41.452551L98.893827,41.358186L99.308283,41.357456L99.410415,41.264498L99.681746,41.262663L99.978287,41.069646L100.184716,41.072709L100.462717,40.931103L101.136618,40.307466L100.280565,40.307506L100.459115,40.014114L101.715816,38.874895L101.582564,38.871442L102.226673,38.284753L103.101670,38.279609L103.730901,37.700488L104.492779,37.691795L104.810714,37.398394L105.248006,37.396659L105.894877,36.812014L106.337381,36.810357L106.666261,36.516854L106.993092,36.517301L108.235682,35.402359L108.559457,35.398679L109.860632,34.248307L110.207712,34.242746L111.414891,33.083451L111.730839,32.805120L109.231622,32.810282L105.341689,32.808199L102.325180,35.452645L100.707729,36.874401L100.274495,36.881439L99.945232,37.170283L99.075114,37.166353L98.750660,37.453443L98.319740,37.450119L97.984941,37.745627L97.742212,37.742095L97.419255,38.032747L96.546705,38.023646L96.217232,38.313691L95.787348,38.307684L95.128960,38.898234L95.332253,38.902217L94.572317,39.597951L94.697194,39.570161L94.892156,39.502478L96.858312,39.478654L95.801681,40.431881L93.406200,40.431276L93.062072,40.580926L92.314248,40.862875L91.775385,41.209260L91.388945,41.543468L91.339714,41.745170L90.886152,41.976219L90.560885,42.176723L89.629653,42.914955L89.098273,43.301711L88.676628,43.625339L88.566895,43.785094L88.411594,43.940185L88.105525,43.996844L87.429854,44.235370L86.595211,44.636335L86.082411,44.756474L85.699484,44.891232L84.598537,45.395141L83.684637,45.879659L83.384407,46.139989L83.251678,46.358160L83.091529,46.483159L82.805502,46.533531L82.510714,46.541956L82.466384,46.486014L82.271218,46.671795L81.909170,46.672343L81.599850,46.958624L80.959161,46.950698L80.627128,47.258103L79.792458,47.258117L79.474523,47.550613L78.659298,47.559225Z "/><path d="M132.847568,35.664304L132.671888,35.842806L133.012879,35.770094L133.507891,35.681002L134.490629,35.610154L135.032686,35.577219L135.515181,35.505304L135.946291,35.492720L136.678222,35.569066L137.444310,35.725627L137.779534,35.771998L138.064721,35.930551L138.424208,35.930551L138.579547,36.052756L138.628053,36.235044L139.039804,36.422213L139.427605,36.627536L139.682092,36.704235L140.557934,36.800230L140.951481,36.839269L141.283238,36.679705L141.596741,36.612234L142.287501,36.458600L142.633791,36.355047L143.023883,36.394424L142.695013,36.769299L142.480647,36.989079L142.015711,37.051822L141.452903,37.308249L141.747687,37.596660L142.025627,37.863203L142.267264,38.004069L142.612387,38.171380L142.873894,38.299949L143.031309,38.432350L143.210862,38.692822L143.726117,38.896770L143.947491,39.020724L144.107476,39.271175L144.168842,39.508422L144.101501,39.648965L143.934062,39.783043L145.336899,39.438858L145.333864,39.438985L145.666830,39.172540L146.235527,38.318176L145.408126,36.624994L145.391845,36.492131L145.635255,36.101735L145.051013,35.810203L144.969106,35.504070L146.054606,34.733085L146.157395,34.621314L144.543849,34.678248L143.278456,35.191254L142.474309,34.776820L142.020685,35.062324L141.112039,34.791642L141.404519,34.508895L140.868923,34.506358L141.017248,34.363198L139.623160,34.368398L139.931609,34.059754L139.408328,34.080772L137.205267,34.097353L136.343153,34.089219L132.847568,35.664304Z "/><path d="M140.257029,21.925903L139.070034,23.015319L137.435367,24.429543L138.645045,24.419333L137.520462,25.418634L137.966624,25.362929L138.408559,25.384092L138.618083,25.263772L141.000330,25.260667L140.679115,25.547150L142.096031,25.547754L143.751428,25.613158L145.617124,25.604314L145.327477,25.951492L145.491135,25.999329L145.217384,26.188282L144.408068,26.542297L144.661477,26.737274L144.069701,26.980077L143.824819,27.156004L143.876436,27.232283L144.471689,27.285073L145.108223,26.944827L145.308850,27.004420L146.091648,27.003462L145.774229,27.280290L146.242159,27.291678L145.938483,27.562244L146.350902,27.566283L145.096022,28.690912L144.867939,28.812878L145.334785,28.812898L144.543850,29.551977L146.617383,29.549064L160.618952,16.899758L160.356976,16.937751L159.352028,17.303518L158.874931,17.610972L157.497359,17.968205L157.133699,18.144856L156.698406,18.082894L156.024786,18.161185L155.496229,18.337400L155.130941,18.318728L154.463598,18.602668L154.242791,18.817776L153.581830,19.113978L152.983786,19.175790L152.345188,19.393310L151.970548,19.442324L151.845305,19.569863L151.320222,19.687342L151.000139,20.011593L151.019971,20.140511L150.725448,20.195265L150.613002,20.343644L149.961256,20.613383L149.624849,20.683187L149.004244,20.568916L148.867897,20.667788L148.251874,20.701367L148.144536,20.783406L147.657962,20.889892L147.508557,20.836690L147.021641,20.856254L146.807491,20.932061L146.361449,20.924696L145.914372,21.112927L145.114918,21.196423L144.978421,21.294759L144.442331,21.417860L144.094155,21.281194L143.523381,21.399130L143.169621,21.526556L142.797998,21.518981L142.495388,21.609877L142.328153,21.760869L141.908905,21.863380L141.210260,21.922665L140.257029,21.925903Z "/><path d="M99.005844,27.436906L97.624382,28.555181L97.958979,28.562641L96.933740,29.394140L97.876220,29.401063L101.046636,29.406589L101.397537,29.124465L103.221924,29.125502L103.559671,28.842184L106.116691,28.826056L107.248059,28.805293L106.859498,29.132486L110.310955,29.133073L112.907351,29.134903L115.208079,29.133129L115.546971,28.832503L116.421968,28.822037L116.745239,28.547227L117.552019,28.549175L117.887696,28.266881L118.053901,28.266491L119.698245,26.862371L122.792251,25.430047L123.311573,24.990272L122.820464,25.004678L123.003809,24.858480L122.553246,24.844064L123.072158,24.425320L123.605535,23.875571L125.129509,23.859575L125.790721,23.322369L126.228081,23.322385L126.926996,22.754189L127.490536,22.738819L127.870246,22.492012L128.399733,22.482102L128.329787,22.651852L128.792464,22.724036L129.667667,22.329134L131.499949,21.585925L134.114822,21.609362L135.457449,21.606217L135.425645,21.654910L138.141340,21.660952L137.955921,21.581935L137.939958,21.200038L137.787360,20.786844L137.476074,20.863815L138.538154,19.987883L139.797709,18.888536L142.492963,18.889590L143.249222,18.691903L144.082381,18.637504L144.184659,18.690237L145.370545,18.465187L145.805767,18.258276L146.691343,18.117323L146.684777,18.271517L146.988813,18.270857L146.282969,18.575885L146.185371,18.780932L146.563464,18.880054L146.928689,19.102275L146.433097,19.247957L146.443488,19.453217L147.057075,19.347928L147.648089,19.328249L148.450158,19.128901L149.036623,19.223988L149.462597,19.362142L150.151255,19.182665L150.804781,19.181810L150.924976,19.273236L150.115016,19.510921L150.248881,19.633457L149.281968,20.202577L149.004244,20.568916L149.624849,20.683187L149.961256,20.613383L150.613002,20.343644L150.725448,20.195265L151.019971,20.140511L151.000139,20.011593L151.320222,19.687342L151.845305,19.569863L151.970548,19.442324L152.345188,19.393310L152.983786,19.175790L153.581830,19.113978L154.242791,18.817776L154.463598,18.602668L155.130941,18.318728L155.496229,18.337400L156.024786,18.161185L156.698406,18.082894L157.133699,18.144856L157.497359,17.968205L158.874931,17.610972L159.352028,17.303518L160.356976,16.937751L160.618952,16.899758L160.621322,16.897693L170.410078,8.616449L167.205065,8.643319L165.004883,8.620380L162.681103,8.591486L160.121500,8.613243L158.707820,8.642615L156.826929,10.147347L153.549243,10.148101L147.390557,10.151275L142.444184,10.141798L140.386095,10.146368L134.975280,10.145846L134.390238,10.571521L133.921930,10.845303L134.443593,10.847107L134.077007,11.120776L134.619363,11.116376L134.253942,11.383530L134.784549,11.382550L134.416667,11.660869L133.228758,12.463127L134.264408,12.473070L133.908871,12.754808L134.285992,12.751200L133.612102,13.298014L132.861125,13.865892L132.363468,14.142068L130.791130,14.141053L130.183827,14.608396L128.643696,14.603518L128.194582,14.877523L127.482113,15.418988L126.483962,15.415968L126.836154,15.140822L126.307369,15.151097L126.652022,14.885261L125.626675,14.887335L124.916613,15.433308L123.888205,15.442351L124.605547,14.887445L122.589203,14.893579L121.150922,15.998451L118.574456,16.004261L117.892010,16.527776L116.384449,16.525303L114.603569,17.901247L115.104670,17.899818L114.042698,18.728776L113.577833,18.725545L112.201281,19.803015L111.712213,19.805101L111.017398,20.355672L110.512963,20.361427L109.143730,21.470444L107.736301,22.592313L108.293731,22.588001L107.323739,23.423116L106.760777,23.418415L106.400543,23.708908L105.966463,23.712870L105.626607,23.995717L104.649707,23.998094L104.337102,24.244537L103.849379,24.246244L103.128204,24.820655L102.828084,25.103626L102.386750,25.108797L101.343894,25.938152L101.063524,25.982835L100.530256,26.309614L99.005844,27.436906Z "/><path d="M149.041822,50.454977L148.939111,50.627532L149.009390,50.755161L149.233127,50.933329L149.448927,51.074745L149.316235,51.196203L148.905160,51.645166L148.726794,51.954667L148.733959,52.192996L149.019477,52.257592L149.501584,51.689857L149.721388,51.605354L150.100229,52.012579L149.314889,52.658241L148.680831,52.679893L148.535815,52.814204L148.563724,52.866775L148.836627,52.869295L148.892398,52.984881L149.065623,53.112630L149.285477,53.086483L149.596394,52.905566L149.521423,52.834821L149.664899,52.667360L149.971187,52.484359L150.159621,52.263169L150.502436,51.958080L150.661981,51.979033L150.595761,52.075523L150.557991,52.228561L150.579882,52.324375L150.488907,52.480664L150.308533,52.644553L150.344846,52.717535L150.263710,52.858054L150.161645,53.018348L149.968981,53.290853L150.034092,53.420218L150.085320,53.431380L150.279510,53.366529L150.334960,53.473252L150.365620,53.598431L150.586050,53.521784L150.676336,53.388146L151.057763,53.277320L151.885046,52.900073L152.503711,52.542987L152.873901,52.272000L153.289060,51.987080L153.783499,51.729435L153.944457,51.601565L153.940366,51.478291L154.163125,51.167774L154.223936,50.956349L154.343880,50.709912L154.713066,50.308018L154.743723,50.154824L154.880560,50.032894L154.776364,49.858349L154.749346,49.420030L155.183851,49.235872L155.359990,49.231234L155.335850,49.043376L155.582584,48.898685L155.412952,48.795911L155.236799,48.750057L155.422292,48.413861L155.095439,48.318408L155.007570,48.064115L154.906752,47.968850L154.288052,47.848639L154.286131,47.845659L154.046491,48.090507L154.202833,48.161536L154.121046,48.297719L153.600065,48.565345L153.179666,48.647286L153.247893,48.525572L152.528444,48.782606L152.532507,48.990207L152.390349,49.166618L152.038032,49.162700L152.065356,49.047059L151.882970,48.875014L151.619702,49.055739L151.274826,49.036380L150.841226,49.401129L150.191579,49.720789L150.222918,49.912320L149.974683,50.065515L149.859677,50.244400L149.635256,50.209806L149.399640,50.380627L149.041822,50.454977Z "/><path d="M149.292263,38.181026L149.166676,38.253998L149.375783,38.352823L149.928486,38.435670L150.007005,38.536386L150.406720,38.552226L150.673341,38.781166L150.426046,39.072378L150.592051,39.174745L150.296327,39.430152L150.443065,39.497171L149.930529,39.601351L149.363684,39.988335L149.761192,40.135253L149.677340,40.276835L149.875638,40.410026L149.745191,40.515299L149.721193,40.796777L149.264928,40.799012L149.072732,41.124575L148.848057,41.339157L148.986132,41.324147L148.930202,41.659488L149.115304,41.679652L149.360923,41.803103L149.620623,41.492965L149.808878,41.437053L149.965201,41.219792L150.111489,40.968330L150.221749,40.961739L151.499502,39.211641L153.757905,39.250141L153.610603,39.207475L153.853272,39.011571L153.890428,38.701200L153.671319,38.700510L153.590754,38.524281L153.706631,38.302263L153.144621,38.193929L153.181613,37.977639L152.276663,37.993421L152.651781,36.703551L151.866313,36.919230L151.162398,36.998745L150.619487,37.133343L150.776888,37.268191L150.673770,37.381179L150.111401,37.630265L149.860522,37.582404L149.292263,38.181026Z "/><path d="M139.797709,18.888536L138.538154,19.987883L137.476074,20.863815L137.787360,20.786844L137.939958,21.200038L137.955921,21.581935L138.141340,21.660952L138.354177,21.925038L140.257029,21.925903L141.210260,21.922665L141.908905,21.863380L142.328153,21.760869L142.495388,21.609877L142.797998,21.518981L143.169621,21.526556L143.523381,21.399130L144.094155,21.281194L144.442331,21.417860L144.978421,21.294759L145.114918,21.196423L145.914372,21.112927L146.361449,20.924696L146.807491,20.932061L147.021641,20.856254L147.508557,20.836690L147.657962,20.889892L148.144536,20.783406L148.251874,20.701367L148.867897,20.667788L149.004244,20.568916L149.281968,20.202577L150.248881,19.633457L150.115016,19.510921L150.924976,19.273236L150.804781,19.181810L150.151255,19.182665L149.462597,19.362142L149.036623,19.223988L148.450158,19.128901L147.648089,19.328249L147.057075,19.347928L146.443488,19.453217L146.433097,19.247957L146.928689,19.102275L146.563464,18.880054L146.185371,18.780932L146.282969,18.575885L146.988813,18.270857L146.684777,18.271517L146.691343,18.117323L145.805767,18.258276L145.370545,18.465187L144.184659,18.690237L144.082381,18.637504L143.249222,18.691903L142.492963,18.889590L139.797709,18.888536Z "/><path d="M148.628648,48.416340L148.401644,48.756446L148.501615,49.008576L148.540608,49.049040L148.585846,48.888952L148.763761,48.874834L148.830614,48.640603L148.776627,48.466470L148.628648,48.416340Z M148.876173,48.052693L148.828252,48.104794L148.888327,48.156489L149.010067,48.222704L149.009689,48.324345L149.061072,48.412054L149.146251,48.416764L149.412937,48.488759L149.119332,48.846939L149.149680,49.153326L149.552144,49.001998L149.334048,49.376326L149.240910,49.638973L149.356091,49.730677L149.689442,49.482796L149.963131,49.501846L150.102997,49.651846L149.745705,49.868175L149.241619,50.035570L149.169492,50.240969L149.041822,50.454977L149.399640,50.380627L149.635256,50.209806L149.859677,50.244400L149.974683,50.065515L150.222918,49.912320L150.191579,49.720789L150.841226,49.401129L151.274826,49.036380L151.619702,49.055739L151.882970,48.875014L152.065356,49.047059L152.038032,49.162700L152.390349,49.166618L152.532507,48.990207L152.528444,48.782606L153.247893,48.525572L153.179666,48.647286L153.600065,48.565345L154.121046,48.297719L154.202833,48.161536L154.046491,48.090507L154.286131,47.845659L154.196824,47.706962L153.722229,47.369871L153.605136,47.148600L152.902570,47.187269L153.185672,46.675386L153.421774,46.500221L152.966292,46.264527L153.034992,46.208707L152.703267,46.241528L152.035751,46.724678L151.712140,46.851498L151.372826,46.809098L151.344861,46.848728L151.186670,47.065031L151.168033,47.315049L150.857350,47.432962L150.395288,47.657818L149.920762,47.704225L149.672312,47.674387L149.403699,47.736392L148.937180,48.011838L148.876173,48.052693Z "/><path d="M111.449753,10.064469L111.467744,10.071466L111.659575,10.361505L112.082886,10.999969L112.417089,11.229132L112.534014,11.493675L112.295955,11.960162L111.739376,12.601560L111.401501,12.914991L111.591896,12.968003L112.150011,13.066634L112.700070,13.164003L112.937903,13.283723L113.461591,13.261071L113.782893,13.316729L113.661781,13.409169L113.188099,13.555057L112.894681,13.694808L112.698349,14.060951L112.992993,14.110369L113.244568,14.232223L113.136616,14.436457L113.220770,14.784871L113.029735,14.947892L112.443257,15.293314L113.169328,15.146651L113.456474,15.144666L113.944205,15.233397L114.278964,15.401222L114.171195,15.654932L113.582400,15.728838L113.343225,15.689069L113.425595,15.589970L113.112878,15.566933L112.865974,15.637734L112.445347,15.836625L111.628517,16.160809L111.265307,16.321980L110.780363,16.145641L110.118050,16.294179L109.969726,16.238778L109.453568,16.268581L109.357710,16.109062L108.709800,16.151002L108.278723,16.205686L107.845517,16.125223L107.550097,16.124092L106.962375,16.205481L106.873791,16.077885L106.985181,15.793196L107.110901,15.684392L107.454617,15.574974L107.642316,15.424797L107.929755,15.169133L108.310512,15.018864L108.740121,14.825318L109.289435,14.638600L108.906469,14.533301L107.485805,14.566432L107.485797,14.566433L107.049158,14.895160L107.231619,14.896152L105.769708,15.981780L105.939549,15.986254L104.468203,17.079709L105.133974,17.078183L104.398646,17.630105L104.909192,17.631032L104.190072,18.175215L106.307443,18.173336L108.350343,18.169149L110.797981,18.165448L113.739295,18.176321L114.102917,17.901256L114.603569,17.901247L116.384449,16.525303L117.892010,16.527776L118.574456,16.004261L121.150922,15.998451L122.589203,14.893579L124.605547,14.887445L123.888205,15.442351L124.916613,15.433308L125.626675,14.887335L126.652022,14.885261L126.307369,15.151097L126.836154,15.140822L126.483962,15.415968L127.482113,15.418988L128.194582,14.877523L128.643696,14.603518L130.183827,14.608396L130.791130,14.141053L132.363468,14.142068L132.861125,13.865892L133.612102,13.298014L134.285992,12.751200L133.908871,12.754808L134.264408,12.473070L133.228758,12.463127L134.416667,11.660869L134.784549,11.382550L134.253942,11.383530L134.619363,11.116376L134.077007,11.120776L134.443593,10.847107L133.921930,10.845303L134.390238,10.571521L134.975280,10.145846L135.088416,10.058867L132.884273,10.062541L133.299258,9.747792L131.118129,9.778569L131.477815,9.502186L129.295715,9.479495L128.861831,9.497648L125.504509,9.482610L125.774122,9.275373L124.838806,9.265464L124.575884,9.472536L122.305074,9.468947L122.580805,9.259123L121.588711,9.258550L121.303376,9.470238L120.196448,9.462654L120.486509,9.250516L118.826928,9.223235L118.534477,9.433528L117.754729,9.445874L114.341178,9.449595L113.470981,10.076190L111.449753,10.064469Z "/><path d="M85.116147,39.116757L84.486830,39.666058L84.614604,39.629718L85.057477,39.533646L84.994094,39.698353L85.584219,39.391091L86.480962,39.090674L87.218592,38.893160L87.086052,39.146571L86.760654,39.281760L86.791602,39.458032L86.870185,39.575072L87.195552,39.676987L87.167401,39.862769L87.632453,39.715599L87.944588,39.542475L88.241194,39.363455L88.496640,39.356338L88.355247,39.512955L88.097677,39.645175L88.341047,39.683418L88.430155,39.883785L88.254688,40.453827L88.004930,41.055782L88.355433,41.164494L88.642173,41.106360L89.158473,40.856222L89.377803,40.375634L89.551795,40.144494L89.980257,39.949996L90.145667,39.779911L90.428547,39.581074L90.986637,39.424922L91.039513,39.604973L90.719990,39.786580L90.960194,39.896358L90.999456,39.969195L90.804583,40.245654L90.892267,40.397467L91.111648,40.413791L92.377931,40.118734L93.085965,39.959855L93.764070,39.777794L94.572317,39.597951L95.332253,38.902217L95.128960,38.898234L95.787348,38.307684L96.217232,38.313691L96.546705,38.023646L97.419255,38.032747L97.742212,37.742095L97.984941,37.745627L98.319740,37.450119L98.750660,37.453443L99.075114,37.166353L99.945232,37.170283L100.274495,36.881439L100.707729,36.874401L102.325180,35.452645L105.341689,32.808199L102.964964,32.810509L102.306357,32.793002L102.640904,32.503742L101.750221,32.502608L101.408728,32.795911L100.955998,32.795983L100.625933,33.084715L100.167703,33.080817L100.464690,32.821002L99.033350,32.828826L97.780024,32.821821L97.457856,33.086065L97.294002,33.085153L96.934708,33.386540L96.508123,33.389370L96.167412,33.674439L95.704811,33.675226L95.027875,34.246594L94.867230,34.246928L94.531968,34.523797L94.085505,34.521736L93.416322,35.094199L92.975492,35.098565L92.640569,35.380167L92.480174,35.379175L91.831593,35.924634L91.404996,35.940467L90.730982,36.510942L90.137332,36.518595L89.463886,37.093578L89.019716,37.092884L88.342996,37.676449L88.198715,37.675391L87.879044,37.954837L87.430415,37.964935L87.097854,38.254339L86.656880,38.256706L85.983518,38.845218L85.834428,38.847928L85.530480,39.115960L85.116147,39.116757Z M83.597206,40.345059L83.278104,40.631525L83.587922,40.618791L83.902138,40.526469L85.179428,39.861690L85.266073,39.737648L84.434954,39.972897L83.907945,40.122364L83.597206,40.345059Z M83.568366,39.718083L83.229606,40.010877L83.299813,40.011331L83.337071,39.986337L83.769777,39.869990L84.289282,39.722243L83.568366,39.718083Z "/><path d="M150.338986,41.120671L150.085002,41.394298L149.878744,41.868765L149.776627,42.198121L149.600278,42.426188L150.282899,42.294340L150.476532,42.149697L151.344472,41.988807L151.343688,41.988467L151.121597,42.021345L150.856081,41.939853L150.513314,41.898446L150.244958,41.932459L150.336242,41.770972L150.383575,41.687371L150.420093,41.504749L150.438172,41.276327L150.338986,41.120671Z M151.499502,39.211641L150.221749,40.961739L150.571203,40.940846L150.843631,41.161605L150.695609,41.644305L151.064014,41.711535L151.235891,41.774165L151.565407,41.812621L151.799229,41.806419L151.828685,41.964143L151.619302,42.266116L151.743508,42.691046L151.676587,43.153574L151.673897,43.172438L151.672679,43.175142L154.162798,41.970498L154.107560,41.565652L154.162842,41.181720L154.507465,41.039813L154.246154,40.439639L154.265563,40.036189L153.621124,39.601831L153.615337,39.396407L153.757905,39.250141L151.499502,39.211641Z "/><path d="M123.365985,33.010465L122.960086,33.380139L123.190815,33.377962L122.036768,34.405306L122.299953,34.406835L121.235201,35.380396L120.588443,35.932154L120.260595,35.993823L120.294172,36.083500L120.763987,36.017026L121.111503,35.877774L121.535805,35.692254L121.568320,35.882696L121.325547,36.028455L121.788633,35.960737L122.180909,35.938850L122.128671,36.228788L121.856210,36.343952L121.625735,36.520748L121.689535,36.587038L122.088216,36.480681L122.470304,36.408131L122.907972,36.328115L123.332617,36.209411L123.235234,36.113378L123.449414,35.956705L123.765089,35.929898L123.864008,35.750759L124.492587,35.447201L125.005170,35.237297L125.636464,35.009895L126.013152,34.841653L126.538707,34.879218L126.518529,35.000300L126.621993,35.006251L127.110186,34.828545L127.473745,34.721021L127.922426,34.683436L128.046038,34.652237L128.382547,34.597090L128.715162,34.522968L128.983790,34.645633L129.301432,34.805304L129.685590,34.751355L130.139799,34.637254L130.312754,34.773985L130.559404,34.824315L130.764106,34.745678L130.986138,34.850977L130.848522,35.049001L131.465294,35.126289L131.627110,35.213598L131.841210,35.314384L131.847597,35.502471L132.350769,35.417138L132.482795,35.476803L132.431078,35.666095L132.450033,35.761394L132.633779,35.850935L132.671888,35.842806L132.847568,35.664304L136.343153,34.089219L137.205267,34.097353L139.408328,34.080772L139.931609,34.059754L139.623160,34.368398L141.017248,34.363198L140.868923,34.506358L141.404519,34.508895L146.617383,29.549064L144.543850,29.551977L145.334785,28.812898L144.867939,28.812878L145.096022,28.690912L146.350902,27.566283L145.938483,27.562244L146.242159,27.291678L145.774229,27.280290L146.091648,27.003462L145.308850,27.004420L145.108223,26.944827L144.471689,27.285073L143.876436,27.232283L143.824819,27.156004L144.069701,26.980077L144.661477,26.737274L144.408068,26.542297L145.217384,26.188282L145.491135,25.999329L145.327477,25.951492L145.617124,25.604314L143.751428,25.613158L142.096031,25.547754L140.679115,25.547150L141.000330,25.260667L138.618083,25.263772L138.408559,25.384092L137.966624,25.362929L137.520462,25.418634L136.745033,26.109818L136.522167,26.421950L135.213232,27.564827L134.282943,28.423122L132.901941,28.418368L132.629788,28.706553L131.374215,29.843578L130.183743,30.947500L129.530949,30.945128L129.349969,31.108331L126.200699,31.102737L125.197573,31.961946L124.071982,32.995686L123.365985,33.010465Z "/><path d="M155.183851,49.235872L154.749346,49.420030L154.776364,49.858349L154.880560,50.032894L155.048812,49.883059L155.202618,49.825426L155.663651,49.511524L155.914434,49.250021L156.018563,48.831425L155.582584,48.898685L155.335850,49.043376L155.359990,49.231234L155.183851,49.235872Z M148.732340,52.510269L148.749083,52.616649L148.680831,52.679893L149.314889,52.658241L150.100229,52.012579L149.721388,51.605354L149.501584,51.689857L149.019477,52.257592L149.052835,52.265137L149.040857,52.328226L148.732340,52.510269Z M145.296626,49.496893L145.152395,49.702076L145.274467,49.740987L145.665119,49.779805L145.505158,49.957430L145.488785,50.148235L145.086517,50.382260L144.852570,50.610519L144.640777,50.776742L144.284524,51.070829L144.517317,51.081497L144.579111,51.213095L144.409073,51.399799L144.086355,51.593626L143.956068,51.838106L144.076835,51.887333L144.375065,51.578663L144.608845,51.671086L144.496770,51.787479L144.579056,51.898382L144.719689,51.930056L144.911611,51.891138L144.988810,51.953487L144.850490,52.164731L144.652497,52.316373L144.588833,52.517690L144.508828,52.710518L144.512464,52.908161L144.511881,53.242843L144.592292,53.371759L144.616289,53.472477L144.487878,53.654899L144.711037,53.747663L144.925659,53.742851L145.251368,53.474257L145.680363,53.378574L145.973006,53.367171L145.974068,53.481275L146.034892,53.592266L146.266978,53.570205L146.344265,53.676553L146.727349,53.652155L146.898158,53.546952L147.183252,53.344479L147.428230,52.980518L147.807803,52.536204L147.919508,52.274555L148.278213,52.014444L148.397746,51.693354L148.199489,51.648117L148.228406,51.212999L148.658570,51.070662L148.515325,50.754015L148.640729,50.364869L148.453939,50.335897L148.756548,49.967621L148.753389,49.528189L148.513605,49.144944L148.540608,49.049040L148.501615,49.008576L148.401644,48.756446L148.628648,48.416340L148.551147,48.390080L148.546498,48.159648L148.499717,48.097795L147.913233,48.100791L147.543549,48.031738L147.269496,48.118494L147.128881,48.273351L146.910429,48.471700L146.695938,48.793953L146.521641,48.943002L146.163864,49.129564L145.742214,49.349703L145.296626,49.496893Z M146.983379,46.299719L146.786432,46.441509L146.422416,46.961368L146.471158,47.124768L146.218336,47.347595L146.427386,47.344050L146.467767,47.427006L146.059898,47.719871L145.933328,47.885103L145.613665,48.088060L145.398003,48.362996L145.089147,48.771215L144.938295,49.108115L144.369171,49.478109L144.156009,49.470388L143.986016,49.749591L143.969644,49.865232L144.218029,49.755362L144.439669,49.646305L144.793776,49.517434L145.053542,49.281394L145.134549,49.126040L145.423828,48.905258L145.586625,48.928211L145.748335,48.917408L146.001375,48.732166L146.067851,48.616325L146.360020,48.470130L146.532796,48.291470L146.777946,48.142588L147.031556,47.899252L147.624443,47.727564L148.173947,47.687455L148.301095,47.679529L148.786077,47.066195L148.791867,46.659550L148.973038,46.697370L149.386295,46.239142L150.098186,46.105187L150.231194,45.832214L150.187476,45.833000L149.769721,45.710575L149.340678,45.597540L149.030628,45.511269L148.642127,45.589459L148.395808,45.742639L148.521418,45.971233L148.302202,46.361723L147.983634,46.498240L147.958381,46.342630L148.071061,46.101323L147.915510,45.986571L147.720800,46.065520L147.525696,46.058824L146.983379,46.299719Z "/><path d="M118.053901,28.266491L114.766192,31.106952L118.959489,31.110507L118.331273,31.667901L119.235241,31.671658L119.022587,31.862143L119.159679,31.813413L119.508859,31.754030L120.018974,31.630972L120.395817,31.618385L120.586408,31.697705L121.192787,31.651776L120.926202,31.855153L121.572589,31.768725L121.994127,31.627182L122.707799,31.227539L124.146505,30.916087L124.450128,30.918688L124.364027,31.108266L126.200699,31.102737L129.349969,31.108331L129.530949,30.945128L130.183743,30.947500L131.374215,29.843578L132.629788,28.706553L132.901941,28.418368L134.282943,28.423122L135.213232,27.564827L136.522167,26.421950L136.745033,26.109818L137.520462,25.418634L138.645045,24.419333L137.435367,24.429543L134.791775,24.461746L134.267429,24.910047L132.529426,24.893802L130.640312,24.905606L129.001009,25.263310L122.718829,26.642151L122.434314,26.876800L121.140455,26.876767L119.698245,26.862371L118.053901,28.266491Z "/></g></svg>