<?xml version="1.0" encoding="utf-8"?><!DOCTYPE svg  PUBLIC '-//W3C//DTD SVG 1.1//EN'  'http://www.w3.org/Graphics/SVG/1.1/DTD/svg11.dtd'><svg enable_background="new 0 0 1000 379" height="379px" pretty_print="False" style="stroke-linejoin: round; stroke:#000; fill: none;" version="1.1" viewBox="0 0 1000 379" width="1000px" xmlns="http://www.w3.org/2000/svg" xmlns:xlink="http://www.w3.org/1999/xlink"><defs><style type="text/css"><![CDATA[path { fill-rule: evenodd; }]]></style></defs><metadata><views><view h="379.428298966" padding="0" w="1000"><proj id="laea-usa" lat0="45" lon0="-100"/><bbox h="65.57" w="173.28" x="694.36" y="1175.11"/></view></views></metadata><g class="" id="countylayer"><path d="M899.933947,245.074139L897.438724,247.370092L903.756437,254.808018L907.881885,253.607318L907.901808,252.761225L906.979934,252.058146L907.161455,250.773777L906.627761,248.832065L905.244619,247.802658L903.823872,247.221110L903.435189,246.555363L899.933947,245.074139Z "/><path d="M634.389530,287.105341L632.819964,288.521079L644.496274,289.913636L645.199311,283.510565L635.785395,282.567922L635.151375,282.950449L636.398485,283.197039L636.606595,283.829862L635.479997,285.888689L634.389530,287.105341Z "/><path d="M49.043825,124.062733L48.151871,124.863221L48.206404,125.985997L48.945793,127.479724L50.509272,128.042239L51.815608,127.570077L51.417096,125.181318L50.740509,124.672165L49.043825,124.062733Z M35.029659,118.037134L34.392738,118.631829L34.938501,121.505268L35.925072,122.630172L36.052905,123.736634L35.658495,126.070809L35.894943,130.309194L38.585453,132.660139L38.867169,131.180300L37.716364,129.671182L37.736827,127.645292L37.621040,122.373101L36.088230,118.375426L35.029659,118.037134Z M39.483541,111.802957L38.802528,111.740607L38.325429,113.487241L38.739543,113.879313L40.093197,113.820941L40.091174,113.060746L39.483541,111.802957Z M34.298375,110.852714L33.786800,112.554976L34.467688,114.035416L35.282563,113.467168L35.590081,112.279119L34.298375,110.852714Z M37.160529,106.451503L36.393273,106.772682L36.054641,107.847588L37.055508,108.613903L37.762160,108.065820L37.844915,107.098075L37.160529,106.451503Z M26.582296,97.631728L25.538913,97.764733L26.005782,99.014040L25.832865,100.100505L26.760294,99.826194L27.723797,99.803988L28.587660,99.880566L29.267644,101.088421L30.219682,102.318859L30.819739,102.060200L31.347184,100.893080L32.160784,100.979545L33.900409,100.924717L34.326372,100.071093L33.947193,99.069401L31.949069,99.448264L30.274281,99.570679L28.857528,98.863122L27.715007,98.647997L26.582296,97.631728Z M12.881656,45.174497L11.904108,45.020107L12.242860,47.609151L13.753936,49.899315L14.423588,49.118680L13.939210,48.129988L12.881656,45.174497Z M3.393637,43.823219L1.321254,43.036415L1.901129,45.666869L2.825186,46.095556L3.053817,47.895138L3.681900,48.828958L4.531687,48.672390L4.929185,47.570814L6.906238,47.529759L6.044116,45.665129L4.530517,45.181328L3.393637,43.823219Z M4.425386,25.649620L3.330999,26.592295L4.813463,27.631654L5.339990,28.796872L5.355309,30.281421L4.423133,31.043354L4.153837,32.035261L4.403403,33.552755L5.594345,34.189068L6.441044,35.666041L7.175859,36.448540L8.485302,36.271591L8.746293,37.519996L9.907642,39.249351L10.653722,38.784553L10.638778,35.687885L10.440241,33.516749L8.116506,29.188333L6.846671,27.359345L4.425386,25.649620Z M466.312390,372.133215L465.278752,372.428520L466.498451,373.640400L468.109346,374.695812L469.462040,374.482595L470.122304,374.894915L471.520284,373.917913L473.092450,374.305177L473.518791,373.744074L475.604610,373.256376L476.963511,373.391171L478.131096,373.650631L479.771207,374.134176L481.657518,374.447009L483.260914,373.855007L484.594843,373.246446L485.945327,372.408420L487.203785,371.460504L489.163485,371.255916L490.459509,370.789051L492.063457,370.782176L493.232131,368.896956L493.180927,368.260962L491.873986,368.291050L489.638897,368.776418L488.826538,368.020956L490.389490,367.082151L491.399021,367.207035L492.203853,366.534390L493.015552,366.314929L492.804932,366.105442L492.271146,365.525960L492.433200,364.968940L491.838095,364.997066L490.705455,364.089729L489.299558,364.761210L488.106994,365.145300L487.235904,364.052100L486.789552,362.647161L485.437158,362.218173L483.365966,362.216215L480.978120,362.502253L478.941000,363.704859L478.665783,364.549095L479.098947,365.310750L480.094784,366.654196L479.290028,367.514837L478.586141,368.286029L477.870006,368.823217L476.939393,369.168945L476.943608,370.444511L476.031738,370.795651L474.458447,371.368361L472.997250,371.563577L471.716366,371.345032L469.506907,371.801463L468.022080,371.453280L466.312390,372.133215Z M441.489758,377.428299L442.940574,377.421928L445.664224,377.110673L448.401543,376.215885L449.745607,376.686041L451.112148,375.767098L452.463860,375.229151L455.007037,374.978290L456.020458,374.030656L457.417052,373.091633L458.471465,372.112671L461.762092,371.764922L463.995322,371.239390L465.938330,370.821634L466.022409,369.863870L467.012685,369.124330L467.587061,368.245637L465.857218,367.609295L464.565179,366.253026L461.336966,366.152965L459.569100,366.645069L458.277564,368.050624L457.398421,369.517805L456.650543,370.615003L454.884294,369.526379L451.604294,370.853105L450.571439,371.976970L450.310657,373.649257L449.038322,373.888573L447.078933,375.088718L445.570847,375.575693L441.358943,376.680063L441.489758,377.428299Z M463.010687,293.136198L463.978751,295.723707L465.269652,296.250458L467.258915,295.839756L467.307813,294.871216L465.521425,294.294787L463.010687,293.136198Z M428.910068,372.211673L427.804407,373.604295L429.723762,374.035833L432.018048,373.259202L433.910462,373.873710L435.416328,374.756047L436.594945,373.119264L437.306550,371.310816L437.682797,369.478294L437.176099,367.923914L435.961232,368.110987L436.097031,370.256515L434.244255,371.231396L432.155346,369.613389L431.038565,369.809548L428.910068,372.211673Z M459.948045,278.150626L459.519704,279.232040L460.946344,280.553491L463.255341,280.129780L463.605699,278.785769L461.594848,278.159426L459.948045,278.150626Z M418.666922,371.907625L417.713156,373.400221L418.323532,374.058140L420.089219,373.753625L421.556517,374.164829L423.022734,372.514203L421.207416,371.402082L418.666922,371.907625Z M410.582157,372.190348L410.350158,373.137395L411.313105,373.885655L412.273695,372.691011L411.649396,371.770456L410.582157,372.190348Z M390.822980,368.688458L389.905556,369.797586L391.554075,370.253337L393.336577,370.452831L395.368091,370.012014L395.325865,369.118794L393.835277,367.905646L392.196239,368.033229L390.822980,368.688458Z M351.225595,357.189001L350.469517,358.011183L352.821608,359.021369L354.726054,360.023302L356.539364,360.556912L358.580771,361.803090L361.352850,362.357368L363.181939,363.772893L364.173724,362.546921L365.693832,363.043714L368.015103,364.509549L370.578157,366.200178L371.643993,366.820036L373.500534,367.346435L375.780864,369.068826L377.476772,369.723311L380.753249,370.766928L383.583807,371.486091L384.413036,370.794354L381.404470,369.057891L378.438854,368.217897L376.731346,366.241189L374.879987,365.751371L371.406626,364.372358L369.645367,363.740933L370.233687,361.513229L371.823469,360.246297L371.333182,358.260919L369.967749,356.981747L367.574165,356.979909L365.287203,357.401075L364.266349,359.389640L362.514581,359.873622L359.990117,359.521704L357.625569,358.399098L355.297451,358.207947L351.225595,357.189001Z M324.962143,353.409901L323.649074,354.725322L324.155624,355.377674L326.194916,355.784374L327.524285,356.350972L328.718705,356.012584L330.661181,355.984522L331.995406,355.958277L334.581512,356.869769L336.662908,357.222920L339.182356,357.651063L340.104451,356.998611L343.206616,356.703973L345.402389,357.409159L348.734963,358.050891L348.766582,357.074146L345.642216,356.043906L343.627356,355.175921L342.585739,354.536430L341.628459,352.318263L341.386936,351.133410L340.187705,350.345828L338.827729,350.983206L338.569246,352.481597L338.268942,353.590444L337.556288,354.859273L335.567427,354.125464L333.808366,353.532631L331.637528,352.917841L332.604396,351.727770L333.133145,350.859222L333.184218,349.703386L331.177386,349.658371L330.165043,349.112651L329.280653,349.629451L329.344510,351.131354L328.724673,351.699656L326.521146,351.462042L324.962143,353.409901Z M315.702784,347.216548L314.777125,347.734009L315.035059,349.111117L317.613319,349.740934L319.614950,350.424096L320.448679,351.253447L321.783125,351.524150L323.166197,351.682968L324.368521,349.553542L325.794421,348.566572L325.434884,347.449262L324.390565,346.738421L323.808666,347.259800L322.339958,349.156600L320.921629,349.062422L318.401795,347.953633L315.702784,347.216548Z M310.246877,340.259704L309.457079,340.856413L310.728540,342.964915L311.682096,344.138155L311.182011,345.525659L310.076008,345.209281L308.939293,345.278779L309.422289,346.735256L310.933158,348.374879L312.350890,347.053523L313.239185,346.703569L314.851845,346.032708L316.587348,346.218016L317.595558,345.414843L315.584720,344.560841L313.863005,343.555829L313.656924,341.830339L311.828501,340.755590L310.246877,340.259704Z M297.357173,341.696883L297.965500,342.620138L299.151245,343.391655L301.408839,344.082400L302.350369,343.427676L300.804513,342.184989L297.357173,341.696883Z M300.387489,336.601731L299.502675,337.598570L300.541245,339.008731L301.739772,338.709648L301.837759,337.055283L300.387489,336.601731Z M290.371625,345.190906L290.377974,346.693311L291.453853,346.505050L294.635448,346.001931L294.851787,345.033262L294.250549,343.920603L290.371625,345.190906Z "/><path d="M548.226783,105.925709L548.376133,108.061746L550.011938,109.337425L551.248436,110.914832L552.719053,113.214888L553.810946,113.913825L556.406444,115.023944L557.849414,116.050743L559.094571,117.084496L560.589498,117.458767L561.990630,118.284834L562.601729,119.484229L561.334897,120.070002L560.615339,121.502911L558.850997,121.966529L556.498162,120.949772L556.169172,121.156009L557.208454,123.824204L557.352488,124.735488L558.207412,125.838685L559.236901,127.875335L559.281119,128.624909L558.221104,129.629845L557.912599,130.538967L557.916838,133.017401L559.231304,135.014966L563.097803,137.157942L567.993760,139.931511L570.612059,141.749024L572.649551,141.924312L575.638027,141.116405L578.304529,140.745896L579.924711,141.084404L581.581043,141.809966L583.159594,141.644871L584.563252,142.133735L587.074044,143.769280L588.361378,145.689981L589.144783,147.619954L589.856166,146.473809L590.713309,145.728991L590.865338,144.793348L591.915091,144.493343L592.536060,145.635655L592.427741,147.090058L592.595400,149.546923L594.239826,148.694043L595.003716,146.659014L595.896165,145.662720L599.408440,144.364419L600.131005,143.279250L601.513650,143.097250L603.419580,143.113090L604.663880,142.443930L606.068378,142.099739L607.239065,142.881441L608.746534,142.724911L609.494984,141.549844L610.875966,140.577228L611.748763,140.402232L612.155985,141.150677L613.390330,142.490415L614.471171,145.148370L613.951747,147.327411L611.593476,148.690430L609.315623,149.284491L607.599980,147.747930L606.611001,148.510417L605.866769,150.307171L608.211249,151.360032L608.843490,152.758375L610.512667,155.948409L610.058468,159.450194L610.184534,161.055933L610.857813,165.128719L610.349542,166.794118L606.477559,170.490995L604.923388,171.850953L602.364627,172.035591L599.693793,171.376822L596.386571,171.119807L595.750334,169.410628L594.003864,168.380975L592.898200,165.975903L590.907187,165.750995L589.416012,166.527569L590.736756,167.770823L592.529056,170.107074L591.579850,170.950991L590.016420,172.765278L589.096693,173.405384L591.375725,174.085206L590.991514,176.019675L593.003609,176.457041L592.646826,178.478878L594.644128,178.916799L594.240058,180.773403L606.461432,183.242006L607.603207,177.505180L609.484061,177.825422L609.625366,175.817512L610.388074,171.825665L612.469082,172.202567L612.802950,170.488759L616.970659,171.228716L617.261100,169.243276L619.098180,169.539213L619.437687,167.505526L621.856351,167.957830L622.525490,162.047936L620.184519,161.672895L621.522488,153.782685L622.722576,145.931355L624.792112,146.249742L625.429361,142.348087L627.441152,142.675935L628.715589,135.022843L630.631367,135.366436L631.588755,129.455106L629.559317,129.126328L627.527187,128.779139L627.155366,130.733328L615.170188,128.450253L605.284396,126.460255L597.065122,124.674970L588.565883,122.676619L589.493771,118.850714L587.454528,118.340460L588.422151,114.458678L585.789187,113.808307L587.766691,106.108911L587.085629,105.901921L589.027526,98.219500L588.316981,98.030130L588.877497,95.690292L584.723980,95.937999L578.643740,96.782128L571.869918,98.472606L563.781906,100.895656L557.840446,103.181352L553.704209,104.323346L550.138458,104.807976L548.226783,105.925709Z M496.001306,137.784970L495.192347,139.423538L495.214894,141.973472L495.932874,142.884687L497.067921,144.100240L497.876988,144.844016L499.855311,144.175469L500.686517,143.797691L502.524480,143.787768L504.194301,144.595127L506.203385,146.373398L508.065088,148.577238L508.755296,150.672450L508.698191,152.098949L509.498631,152.333800L510.753257,153.236331L512.029115,155.095368L512.495526,156.786358L512.177567,158.680720L513.232111,159.604381L514.258882,159.017985L514.549514,157.908208L515.342824,157.045022L516.651221,156.559424L519.218027,156.025463L520.850846,156.478124L521.951540,157.822782L523.075286,157.817137L524.473749,156.748706L525.729776,155.284901L523.421313,153.598271L521.935943,152.914000L518.260060,151.156781L517.418964,150.174584L516.821301,148.963757L514.880678,147.974734L513.614536,146.703708L513.689170,145.212288L513.802847,143.437826L513.093960,142.867044L512.577894,141.452810L511.949305,140.772164L510.536182,140.185322L509.163905,140.255779L505.947487,141.118197L504.887333,141.137738L501.725882,138.669156L499.679667,136.758535L499.793796,135.593444L500.079629,133.999983L498.775387,133.532980L497.624070,134.709826L496.920900,136.782807L496.001306,137.784970Z "/><path d="M580.342018,364.421938L580.505423,365.568305L582.670894,363.713513L583.900949,362.613610L586.887861,362.987176L587.879017,362.280643L589.401659,363.195053L591.181173,363.721311L591.650192,365.747446L593.303798,367.732271L593.819260,367.853034L594.965771,366.892897L593.557870,363.676745L591.994243,360.195605L591.786031,358.695962L589.459482,359.914693L587.423203,359.662308L587.316654,358.024774L587.084152,357.177743L584.638061,358.587893L582.967041,359.025730L582.063908,360.072391L581.680157,361.825952L580.342018,364.421938Z M573.659637,353.958484L573.381489,356.503140L573.300630,358.459471L574.633219,357.951391L575.765067,357.961445L577.439265,358.965931L578.185987,357.919729L577.923247,356.177780L578.872498,355.613015L580.470914,356.751019L581.154435,355.704887L583.545466,354.448218L584.067316,352.877441L582.426371,352.287352L581.321387,352.695082L578.564699,353.497534L576.329414,352.559523L574.530871,352.948797L573.659637,353.958484Z M565.401563,354.656247L564.883193,355.430821L566.270578,356.155959L566.734738,354.859382L566.373968,354.744938L565.401563,354.656247Z M561.827087,353.180969L561.673844,354.306746L563.515986,354.490126L564.309775,353.176913L561.827087,353.180969Z M542.462182,365.863834L541.794506,367.672787L542.952671,369.139598L545.059653,369.683504L546.915663,370.701059L548.131162,370.399204L548.907328,369.799098L545.769182,368.038793L542.462182,365.863834Z M513.674272,357.144214L513.461006,358.172891L513.827087,359.049316L514.027145,360.669504L515.442871,361.900977L516.861007,362.343185L519.572626,362.385349L521.263340,361.778664L521.801030,360.551163L523.174159,359.784417L526.489180,359.423262L529.796764,359.971348L532.925921,361.038878L535.604416,360.870660L538.039151,361.024256L540.456529,362.273912L540.355741,360.746168L539.077035,359.018658L537.745732,358.663872L536.929731,357.702810L538.434157,357.398787L540.120788,356.715606L541.480947,356.108272L543.241870,354.969673L543.692520,356.065566L544.669496,356.825899L546.558055,356.529043L548.283251,356.606220L548.698969,355.952517L550.275065,355.218460L550.996498,355.729608L550.177829,358.005746L550.114984,358.765837L550.921015,360.301670L551.863881,360.389343L552.693716,359.645424L553.092913,357.880098L553.632470,356.478717L554.210885,355.734387L555.364621,355.161000L556.130414,355.981285L557.636801,355.433723L558.271846,355.838856L559.622730,357.219945L561.146717,356.937830L563.018455,357.614166L562.827020,356.705439L561.101019,355.200273L559.848178,354.428352L559.631112,352.315267L561.092938,351.195051L562.693063,349.729375L562.990541,347.359916L563.767879,346.467622L565.004126,345.359076L566.491414,345.344467L567.680261,345.716549L567.646410,347.044342L566.054436,348.389283L565.680887,349.597838L564.943605,350.711981L565.212057,351.358824L568.373578,352.072781L570.974859,351.386366L572.671432,350.252112L574.583410,350.611435L575.250063,351.225373L576.849143,351.346055L577.242831,350.216963L578.900723,351.396291L579.833275,350.835124L579.920123,350.245819L581.180586,348.894853L582.872665,348.324486L585.066202,347.808305L586.204413,347.093719L586.917147,345.614603L588.170932,345.584774L589.386415,345.814388L590.622587,344.895088L591.799280,345.405760L592.376308,346.311148L591.558335,347.360293L591.118530,349.445439L589.856717,350.153879L590.046985,351.213939L590.568076,351.227711L592.474717,350.316267L592.615791,350.122912L593.547373,344.572082L589.434822,343.867969L589.799583,341.790373L590.645338,341.936993L591.881744,334.433271L590.627412,334.194837L591.337486,330.460053L595.422939,331.103882L595.756163,329.193265L599.973647,329.893951L600.302352,327.880853L603.571274,328.460790L603.869514,326.583410L605.692495,326.867148L605.854505,325.643179L604.918059,324.746180L601.283192,326.498522L596.692723,328.312511L592.486896,329.476158L590.025759,331.192603L587.689664,331.907701L586.455407,332.901307L584.006719,333.987636L583.449164,335.522083L581.805466,338.199979L580.061308,340.022801L580.720054,340.672297L581.578389,341.805031L580.690548,342.731397L579.915491,342.716252L576.909537,341.642240L576.926311,340.247484L577.301785,338.567654L575.180565,338.164871L572.547689,337.913747L568.346187,338.393620L564.596964,338.775001L563.254927,338.776672L561.758508,339.801846L559.515948,340.301168L558.371995,341.014088L556.859287,341.563740L554.379192,343.459500L551.002057,345.871195L549.602885,347.261826L546.806596,348.766487L545.389135,349.521374L545.645116,350.821998L543.180065,350.856440L541.854835,350.376675L539.086042,350.951023L539.069715,353.092166L537.904296,354.160842L536.624832,354.308563L535.735937,352.115851L532.435544,350.971271L530.697704,350.927060L529.036317,351.799945L527.250035,351.672999L525.868156,352.204412L523.764974,352.524986L522.725685,351.358724L520.585426,351.677306L520.178635,353.205856L518.145819,355.491607L516.900131,356.484491L515.069155,356.583975L513.674272,357.144214Z M501.476034,366.178551L501.993718,366.825537L505.822637,367.539501L508.805589,367.560446L510.584806,368.303497L513.098934,366.715817L514.196783,365.519964L513.368211,365.246364L512.379592,365.661292L510.288470,366.517157L508.411275,366.100588L506.373036,365.903560L503.548638,365.959174L501.476034,366.178551Z M495.944516,361.368763L494.855127,362.506873L495.285262,364.448951L497.413649,364.624876L497.621232,365.297148L499.084357,364.946827L502.614961,364.946680L505.419000,363.766253L504.690085,361.283025L502.675138,360.638165L498.806064,361.496183L497.575206,361.003785L495.944516,361.368763Z M492.433200,364.968940L492.271146,365.525960L492.804932,366.105442L493.015552,366.314929L494.423534,365.931930L493.248570,364.929669L492.433200,364.968940Z "/><path d="M697.989678,190.305150L691.300527,200.080600L697.780962,200.488289L703.534559,200.704879L703.635145,199.058882L724.435561,189.690908L729.789525,187.141646L737.999697,186.933145L745.692721,186.831977L745.617824,183.662438L756.968143,182.939571L756.471684,172.919548L755.740540,165.187368L747.619237,165.551055L745.325156,163.749046L733.728618,163.998956L733.613732,163.652881L727.912984,163.735650L716.661395,163.527212L712.537360,168.762898L710.741515,171.537693L708.396307,170.965886L707.859185,169.742139L705.636997,169.747391L705.218500,171.492217L702.871767,171.522329L702.641060,175.556356L700.752237,175.485511L700.514400,179.291598L693.982395,179.114484L694.323377,183.030471L694.088108,185.984211L696.128135,186.183040L696.037528,187.213014L698.117456,187.203070L697.989678,190.305150Z "/><path d="M661.576096,319.716239L661.244371,321.437309L662.577426,321.655161L663.803835,322.362895L664.519168,325.308671L664.225857,328.154142L665.774707,329.031688L666.947967,330.240400L666.922337,331.856374L669.109969,334.376122L668.688715,335.707306L670.525323,335.667048L671.218457,334.464787L672.190643,333.938491L673.103239,332.854404L673.959096,332.726383L675.024438,332.231607L676.347810,331.596643L677.177002,331.636278L677.300302,329.226411L676.878705,327.988481L678.180693,327.238537L679.264015,327.425466L679.961427,329.666150L680.983071,329.346515L681.921738,328.445083L683.800391,327.157637L686.003882,326.635629L686.308688,325.914341L685.421500,325.361492L685.579514,323.802104L687.242189,323.696339L688.875420,323.415828L689.778893,322.526741L690.225572,321.207287L690.695650,319.725248L691.936828,320.111136L693.839043,322.252240L694.798665,321.359396L693.953309,319.437612L694.846232,318.137863L696.212001,316.693594L696.211834,316.025143L694.233881,315.651973L693.312643,314.904320L692.672813,313.554102L694.531367,313.196370L695.696695,312.216628L693.931764,311.169512L694.357528,309.341903L693.113434,308.567472L693.009842,307.945918L691.737240,309.306194L690.330698,309.122280L689.692434,310.060902L688.711913,310.943960L688.260746,310.389779L688.116862,309.455427L688.837930,308.716986L689.276570,307.522195L688.752736,306.537782L690.202240,305.903389L691.881090,305.241007L692.513107,304.455700L693.896370,304.735436L695.316346,304.438378L697.293345,304.224588L698.325333,303.468423L700.520393,303.892079L701.406772,302.954314L701.169375,301.765973L699.125555,299.791030L697.768532,299.298829L697.281780,298.631565L696.006656,299.034256L695.110992,297.818854L694.413199,297.908479L694.526944,298.631937L693.954775,299.333605L693.377417,299.405876L692.548243,298.983475L692.423891,297.736332L693.048779,296.651220L694.104894,295.651350L694.806192,294.184690L694.629932,293.066556L693.356105,293.459527L692.010091,293.374278L691.282963,293.744151L690.587576,295.016941L690.839324,296.704903L689.639346,296.856493L688.898849,297.935276L687.671511,298.119971L687.060022,299.461022L685.503709,300.132978L684.709276,301.183229L683.354009,302.234406L683.027692,303.253823L681.812906,303.675050L681.175610,304.396594L680.372861,305.413509L681.043649,305.918016L681.832086,307.169859L680.638565,308.208307L679.424387,307.233150L678.747935,307.990379L678.977499,308.725923L677.166946,309.268398L676.245532,308.971764L675.445167,309.239807L673.356606,310.529565L673.241224,313.145822L672.342173,313.983729L669.719005,313.621324L668.441167,313.987385L666.813083,314.896849L665.333126,315.247844L663.958374,316.556243L662.856435,318.021844L661.576096,319.716239Z M658.985059,340.830013L660.266634,341.357263L662.001350,339.844222L663.327428,339.331722L666.862040,339.745150L670.146869,340.305866L672.022489,339.274212L672.191569,338.559166L670.234021,338.275584L669.354525,337.194200L667.803408,337.263966L663.714400,337.078712L660.983090,338.723080L658.985059,340.830013Z M645.375030,353.045943L645.695089,354.192543L647.423588,354.603024L647.823105,354.017097L648.112203,352.762685L648.578343,351.327485L647.591944,350.857224L646.319206,352.171319L645.375030,353.045943Z M632.576406,345.879894L632.409307,347.100770L633.063023,347.816521L633.989862,347.394992L634.159096,346.345354L633.319417,345.488274L632.576406,345.879894Z M635.400755,320.024275L635.207544,321.652575L640.155331,322.303888L640.737837,321.847256L640.788811,320.365072L641.092931,318.406743L640.917874,316.929657L642.883491,316.131754L644.548446,316.435036L645.605934,316.285467L645.338397,314.575166L647.075691,314.539778L649.487192,314.459942L649.787390,312.596215L651.063595,312.204289L651.324567,311.512861L651.597784,309.511804L652.893031,310.016363L654.773392,311.229045L655.754804,310.337435L656.050880,308.888896L658.408575,308.167064L658.942133,307.333072L658.308041,306.154830L659.588310,305.242020L661.570291,304.770914L662.956968,305.430876L665.351238,305.274467L666.742869,304.636601L668.577769,303.906876L670.163079,303.084276L671.281573,301.394804L671.929407,299.876535L672.419591,298.272457L673.610990,297.492328L672.603901,296.310216L673.560536,295.194300L674.475713,295.141602L674.833789,293.724816L675.652708,292.634569L677.171060,292.817691L678.980331,292.212976L679.539199,291.182916L680.928657,290.767325L681.510030,290.049126L682.031506,288.301255L682.979181,287.622555L681.000324,287.461416L680.872451,290.188106L676.277756,289.908004L676.166074,291.869521L669.962751,291.438075L669.678394,295.635369L668.997940,296.540848L667.968834,296.441110L667.442664,297.704220L666.116875,297.611864L666.062111,298.235387L664.026103,298.074720L663.966070,298.707143L660.395687,298.714484L659.654011,299.887227L657.562366,299.694590L657.475619,300.665018L656.060585,300.532293L656.547192,302.494805L656.413886,303.856734L655.760155,303.788390L655.418837,307.645738L653.913289,307.614242L653.815459,308.608755L652.559005,309.105370L650.550149,308.948988L650.435223,310.271288L649.719749,310.182059L649.296005,311.758983L647.601906,311.589553L648.190692,312.531766L647.037863,314.105857L646.733523,313.081200L645.160791,313.227674L644.188905,314.815396L641.115030,314.191702L639.087096,315.945220L638.988400,317.569488L637.409487,318.014358L636.582885,318.868344L636.423135,320.164653L635.400755,320.024275Z "/><path d="M933.554243,282.833873L934.134769,283.633181L935.568398,282.620511L935.954608,281.343373L938.031506,281.958057L938.802792,281.197962L940.294421,282.013009L943.050604,281.633907L943.235107,281.013852L944.421743,281.417715L945.136742,282.367976L944.879231,283.610383L945.853031,284.089253L947.864028,282.967499L945.906369,281.140106L943.590565,278.606889L939.990904,276.014336L937.773012,273.145197L933.554243,282.833873Z M918.889512,281.754313L919.541765,283.336828L921.024791,286.631898L921.761009,288.652129L923.895952,292.087974L925.186446,294.197375L925.111581,298.127995L925.957532,300.926834L927.354139,302.550350L928.180980,302.147625L928.684781,301.282103L929.272035,300.532509L929.203199,299.906904L930.038615,299.169619L931.135113,297.731524L931.824818,295.632539L933.079213,294.418717L934.666602,294.785947L935.086255,294.583451L935.523503,293.509048L934.150892,292.587483L933.365199,290.090914L933.517631,288.073931L933.375821,287.148209L931.789400,285.828126L930.927866,283.220106L929.073364,281.236131L927.477378,279.778752L926.535849,278.860541L925.782427,278.367009L925.606918,277.292535L924.479281,277.156697L921.347531,279.153989L921.331610,280.166442L918.889512,281.754313Z M896.326195,287.037953L896.765965,289.439652L898.047264,289.836583L898.592246,290.691509L899.796118,290.894510L899.813884,290.911656L904.138286,289.751814L904.742539,285.759991L907.481626,286.698127L910.068813,287.158707L914.373425,288.774644L916.603600,288.204652L917.957242,287.363186L916.703624,285.378326L917.467316,284.296584L916.488271,281.874949L914.220397,281.285143L912.090687,281.644062L908.915846,280.797949L905.894365,280.106876L904.708054,279.132955L903.687236,280.015275L901.652590,280.131995L899.939370,280.825655L898.592560,281.465546L897.383342,281.744304L898.202498,283.948071L897.380532,284.970415L896.327434,285.683700L896.326195,287.037953Z M875.387181,273.998778L875.391313,274.216124L876.941535,275.101678L879.262360,276.563997L879.840082,277.549526L880.997944,277.765019L884.107573,279.283561L885.742913,279.821816L888.027507,280.589348L889.135258,280.182214L890.236303,280.709348L891.185950,281.736041L893.158654,282.265465L893.636791,283.405701L895.010188,283.115145L895.166656,282.445785L894.884660,281.752799L895.080609,280.808401L896.495223,280.798989L898.561190,280.016956L900.323199,278.932838L900.988717,277.893453L902.518257,277.486511L904.781420,276.546547L906.154223,277.884998L907.431344,277.424047L908.478993,276.960004L908.211420,275.536444L907.094032,273.559433L909.252141,272.981968L907.605964,271.449611L907.567454,270.725532L905.793688,270.256570L905.307388,269.394595L902.505475,269.086777L902.777071,266.318004L904.548823,265.135534L903.437289,264.953407L903.237658,263.219564L901.816233,262.867863L901.163599,260.997717L898.482744,260.074753L896.504718,260.458171L895.509390,260.000728L892.395939,260.184003L890.800099,259.879129L890.179549,262.291754L887.239991,263.137810L886.889929,263.681814L882.694408,267.800828L880.917642,270.348419L879.974854,270.618754L875.387181,273.998778Z "/><path d="M899.813884,290.911656L900.978595,292.033361L902.120963,293.752942L902.596423,295.000371L903.911104,296.233483L904.883814,296.075991L905.624326,296.855306L907.245341,297.726230L908.181443,298.668298L909.091324,300.450404L909.568974,301.241394L909.480765,302.665208L910.252270,303.653271L911.281923,303.473289L911.502600,304.419312L910.572300,305.591711L910.908348,307.545396L911.337531,307.590200L913.657443,306.516854L913.873305,305.627079L913.963646,304.214395L915.624161,304.610435L917.247409,305.331998L916.546457,307.338940L916.389404,308.566479L916.142776,309.216419L915.713955,309.901380L917.189559,311.139985L918.622805,311.061073L919.548774,311.570048L921.057110,312.590774L921.505144,312.181179L922.619127,313.629354L923.891946,314.995051L925.486482,316.709694L926.734224,318.157389L928.036237,318.994399L928.798277,320.285001L929.614910,320.867767L931.048811,321.485949L931.127844,320.732639L930.978773,319.204672L930.504282,317.486158L929.818005,315.343262L928.985761,313.741010L929.366494,312.944171L929.012535,311.098974L928.404174,309.582203L927.402006,307.642403L926.414892,305.674059L925.424202,304.198712L922.225563,298.334159L921.967823,295.901526L921.223079,293.121086L918.224593,287.785428L917.957242,287.363186L916.603600,288.204652L914.373425,288.774644L910.068813,287.158707L907.481626,286.698127L904.742539,285.759991L904.138286,289.751814L899.813884,290.911656Z "/><path d="M674.675577,0.000000L672.677366,1.295153L671.815546,2.292673L669.352480,5.345373L667.127412,7.828298L664.143764,9.785113L661.966928,10.500009L659.345055,10.415319L657.655850,10.742408L655.485931,10.470582L653.556987,9.579437L653.331228,8.192200L649.356748,9.425074L647.306507,11.135429L644.028881,14.011897L638.584610,17.286918L634.495549,18.369210L632.214606,17.763985L630.005393,16.682690L626.077325,18.794532L623.974206,20.786894L620.850115,24.138741L618.710623,26.107997L617.590606,27.924866L616.297131,30.584393L615.339242,34.680747L613.922709,37.290160L610.239886,40.726164L606.643877,42.771646L603.544791,43.653911L601.196822,43.361481L597.334370,43.175945L592.568155,42.526410L589.324459,41.311774L586.873103,40.491689L586.185474,43.807700L585.156748,46.216580L584.113623,48.132218L583.222068,49.766629L580.766341,49.922511L578.231286,50.804763L580.216777,51.486510L582.360856,53.187488L583.824471,55.239636L584.289727,57.298575L584.974888,58.232723L586.428311,59.113425L588.848977,61.273135L596.317903,63.354795L597.439716,58.814702L609.955075,61.853784L612.784085,62.406161L613.123304,60.870887L619.331635,62.439994L619.022285,63.995558L623.145733,64.911476L623.429571,63.354317L627.100133,64.092663L626.853695,65.642759L635.303628,67.252004L635.493201,65.713430L639.005738,66.403289L638.800001,67.939717L651.395326,70.047338L652.945922,70.133410L661.215133,71.411910L661.006937,73.465702L669.092353,74.183427L668.860110,76.519654L677.187153,77.333156L677.136122,77.979432L697.687014,79.473082L705.494820,79.787743L724.371170,80.209358L747.799802,79.653949L760.256124,78.928424L759.441299,67.710624L764.565020,67.104816L773.991567,66.094198L782.797050,65.358615L791.098147,64.488818L802.821529,62.571093L798.685309,36.451634L796.848731,35.838002L795.009740,35.863048L792.386367,34.050691L789.769533,33.294581L787.764055,32.205983L786.369366,31.930218L785.849692,31.030270L783.226195,29.406122L781.058060,28.612171L778.618477,27.446398L777.537263,28.179673L776.761764,27.954909L773.627264,28.827900L770.877691,30.667103L769.448756,31.120505L767.840642,32.858958L766.836665,32.652007L765.977743,33.083755L763.708738,32.650537L761.517056,31.781537L759.906649,30.810219L757.870709,29.072032L756.718980,29.746408L755.696666,29.387430L752.607281,28.959219L749.566437,29.137653L748.764407,30.066363L747.379204,29.952097L746.742574,28.782425L745.166660,29.288765L742.450874,28.686641L741.594071,27.020425L740.792950,26.566970L738.830115,25.847254L737.675919,26.892553L736.750801,26.706703L736.635615,25.659435L735.078833,24.057333L732.993453,24.176157L730.980637,22.849357L728.728328,22.123540L726.521911,22.603749L725.516713,22.315683L723.865928,23.966832L722.055125,24.444635L721.162416,23.484939L720.029258,22.968252L718.204408,23.371306L717.269506,23.412065L716.330307,24.021698L715.070181,25.344099L714.105556,24.741286L712.474134,23.999983L710.602600,23.829031L710.694029,22.276693L711.018118,21.263631L708.825563,20.835625L708.029732,20.315259L706.323850,19.838901L705.256351,19.456264L705.010916,17.902042L705.976394,17.615830L706.050181,16.541473L707.317093,15.414101L707.104289,14.728172L705.573438,13.876890L703.470390,13.241924L701.859912,13.121693L700.768868,12.388469L699.312108,12.091639L697.810973,12.752998L695.936185,12.791590L694.198814,12.624241L692.179487,14.975567L690.983371,13.882607L689.911269,13.574545L688.794663,13.609940L688.731894,10.904045L689.062071,9.424950L686.510711,6.452690L685.646956,5.932383L683.962734,7.318950L682.999872,9.202103L681.731659,10.326494L681.822355,11.604964L681.293351,12.453309L679.790869,12.676973L678.342668,12.028209L678.079941,10.471451L678.401277,9.428683L679.914647,9.100228L680.429916,8.350109L681.860084,7.386566L682.034260,6.595155L681.679085,4.932319L679.384363,4.205629L678.222987,4.298055L678.137351,2.944993L676.392862,2.351116L674.810828,1.324549L674.675577,0.000000Z "/><path d="M721.788222,236.532109L721.351175,237.329705L723.692281,236.798128L724.400038,237.082862L726.426837,238.495536L727.777681,239.963122L727.356196,240.227957L731.838225,242.283698L734.013922,242.304906L735.801504,243.551214L735.794028,246.150037L739.314926,246.102857L739.253929,243.557116L742.466333,243.377259L742.204747,236.245716L742.273374,230.293790L733.859803,230.504873L733.262609,229.198533L731.855097,229.197726L726.863576,231.393767L725.646769,234.164510L724.433050,235.144928L721.891908,235.737799L721.788222,236.532109Z "/><path d="M540.543870,200.217323L540.629817,202.492004L541.324100,203.172829L542.458423,202.393917L543.525530,202.309548L543.912882,202.919571L544.954126,204.294458L544.213230,205.016583L543.140330,205.153927L542.474918,205.627363L542.878279,208.017498L543.389890,208.083431L545.031668,209.291290L544.615774,210.364901L543.982402,212.307132L544.664302,213.567313L545.689726,214.069726L546.499283,214.383709L547.713713,212.604788L548.972164,213.394531L549.357272,214.848924L550.082945,215.825244L548.934906,216.655595L548.021798,217.286328L548.722266,218.588577L552.580681,218.305822L554.617643,218.921142L555.385242,220.017620L559.010154,219.835663L560.114978,219.310203L560.499239,218.188564L559.798197,217.833984L560.296860,216.336250L561.070853,217.107821L562.610420,215.951608L563.802855,215.831631L563.292898,214.942363L563.874222,212.080257L566.185882,212.761033L567.478761,213.807769L569.061859,213.740167L569.226041,212.696697L570.789943,211.140776L573.529074,212.606244L574.918738,212.210189L577.431166,212.349735L578.700605,211.614583L581.559418,211.934754L581.634423,213.172403L583.371060,213.218910L586.725282,214.902679L588.200208,215.081225L590.545605,214.473524L593.515056,214.182832L597.294184,214.225727L599.617280,212.684612L601.854463,211.890566L603.941389,211.784026L606.966595,210.981193L608.587993,211.477319L608.853380,211.031356L605.834659,209.610952L605.434123,207.734836L601.202675,206.884361L602.343079,201.196341L600.831367,200.849989L602.358710,193.174853L604.436500,185.514288L605.426787,183.363300L606.461432,183.242006L594.240058,180.773403L594.644128,178.916799L592.646826,178.478878L593.003609,176.457041L590.991514,176.019675L591.375725,174.085206L589.096693,173.405384L587.419459,174.565962L586.346105,174.533525L585.837298,175.619794L584.866303,176.193834L583.122309,177.237958L580.226148,177.041094L578.474704,174.334683L577.591932,173.985211L576.750663,172.089855L575.192920,171.494440L573.497862,170.133288L571.939618,169.994869L569.215004,170.447630L566.962933,171.978666L565.618407,173.764589L563.577758,176.014849L562.341509,177.989493L562.144748,179.215160L562.039830,180.761050L560.546636,181.000635L559.230809,182.063363L558.310186,183.602245L555.879697,185.186257L552.964418,187.796423L549.775668,190.285077L548.363512,191.871424L547.904256,193.949716L548.383517,196.172102L548.333248,196.799044L546.396065,196.757346L545.039702,195.818667L543.136040,196.105319L543.314679,197.272802L542.028000,197.903178L540.543870,200.217323Z "/><path d="M543.703269,225.341582L542.915066,225.840999L543.311009,226.980507L544.278253,227.429848L545.244471,227.716919L546.556419,227.276722L547.850224,227.376856L548.112318,227.788840L547.108575,228.844226L546.417295,228.905391L545.567460,229.314330L546.750138,231.598665L548.829179,233.466327L549.753908,233.651830L550.325971,235.238455L551.311698,236.324287L551.982454,238.879021L553.314621,240.422984L554.666556,242.050190L553.951779,242.555646L553.449161,243.067197L553.843269,245.241083L556.012669,246.757477L557.848403,247.401943L561.653210,247.989701L565.225778,248.018856L568.437668,247.299600L569.998698,247.055277L571.032781,246.400097L572.391753,246.716184L573.685085,246.903077L574.266718,245.828367L574.421746,244.682880L574.690082,243.551801L575.411544,242.688441L576.307177,243.056211L577.472521,245.876299L578.059651,248.060313L578.241621,249.196992L578.649189,250.914320L579.864818,254.671963L579.775964,255.783928L580.604554,257.881320L581.107723,259.726186L579.941896,260.008313L579.067932,260.650267L576.885623,262.364223L575.813230,264.082059L576.065943,265.985640L576.745523,267.991654L577.573878,270.515157L577.385392,273.832186L576.137714,276.147608L573.815137,276.712526L571.432281,277.134626L573.025655,278.431548L575.844882,278.904909L576.189609,280.370815L578.964547,279.576303L581.424523,278.808246L582.116562,277.352685L581.777806,277.281525L582.182993,275.344318L585.654366,276.062033L586.365696,275.813946L587.073055,272.164217L589.048735,272.541126L589.372077,270.753978L590.071764,270.869349L590.799900,266.944057L592.885615,267.323141L593.242550,265.390227L595.328825,265.709571L595.660204,263.839141L596.348316,263.973408L597.073320,260.068636L599.173246,260.456485L599.900560,256.604943L602.661272,257.045344L603.389207,253.218431L605.321873,253.447115L606.019890,249.781779L606.773645,249.919123L607.129320,248.023760L609.167136,248.341716L609.819984,244.471615L611.904348,244.835703L612.266387,242.969265L613.010544,243.090155L613.677761,239.220185L615.813390,239.563506L616.151905,237.631043L618.109024,237.924773L618.455656,235.877973L619.214679,236.004301L619.547756,234.212782L625.347404,235.148629L631.910153,236.035701L631.697329,237.814329L633.832759,238.133551L634.064791,236.156409L636.153573,236.435031L636.410963,234.427791L640.519808,234.965395L640.285011,236.947361L643.407661,237.454307L654.393184,238.676414L672.439434,240.330499L684.023053,241.090425L683.877413,235.889626L684.342841,229.292015L689.740275,229.652624L690.786219,209.906298L690.041409,209.869549L689.906369,211.838073L686.264990,211.618799L686.139186,213.533694L682.243534,213.363979L682.160783,215.460363L671.776291,214.711036L660.055605,213.636889L644.517228,211.894372L644.791110,209.628085L639.813462,209.136927L628.442649,207.647543L628.163786,209.604393L619.995899,208.318595L619.632902,210.251905L605.434123,207.734836L605.834659,209.610952L608.853380,211.031356L608.587993,211.477319L606.966595,210.981193L603.941389,211.784026L601.854463,211.890566L599.617280,212.684612L597.294184,214.225727L593.515056,214.182832L590.545605,214.473524L588.200208,215.081225L586.725282,214.902679L583.371060,213.218910L581.634423,213.172403L581.559418,211.934754L578.700605,211.614583L577.431166,212.349735L574.918738,212.210189L573.529074,212.606244L570.789943,211.140776L569.226041,212.696697L569.061859,213.740167L567.478761,213.807769L566.185882,212.761033L563.874222,212.080257L563.292898,214.942363L563.802855,215.831631L562.610420,215.951608L561.070853,217.107821L560.296860,216.336250L559.798197,217.833984L560.499239,218.188564L560.114978,219.310203L559.010154,219.835663L555.385242,220.017620L554.617643,218.921142L552.580681,218.305822L548.722266,218.588577L548.912518,218.941013L549.091251,220.767971L548.584802,222.167863L548.768261,222.871664L548.713531,223.935905L547.694805,224.005703L545.727716,225.211636L543.703269,225.341582Z M517.537829,226.714867L518.062546,228.557733L517.777878,229.884360L518.848641,230.828031L520.349211,232.544993L521.665993,233.479810L523.002291,235.122196L524.286002,236.335787L525.864685,237.555804L527.577332,238.245646L528.458303,239.143805L529.030223,240.753965L530.439354,240.552635L530.829728,239.167371L532.232779,238.817231L533.691461,239.278221L534.900646,238.896840L535.537680,239.474553L537.145725,239.344744L538.001985,238.521336L537.220584,236.747979L536.625424,235.489578L537.477914,234.357543L537.059599,233.310196L537.734866,232.687993L537.516574,231.729264L538.353793,230.647450L536.319354,228.873160L534.390210,228.885006L533.930021,227.623678L533.832211,225.958606L532.480328,226.695973L530.760809,226.987812L529.618490,225.840291L528.771452,226.241720L527.713958,226.934873L526.651339,226.424715L524.861302,227.271683L524.998223,227.762401L524.400751,228.511809L523.321012,228.083712L521.426090,227.105929L519.071103,226.374854L517.537829,226.714867Z M458.234602,192.583730L457.381531,193.346300L456.557939,196.849605L457.943174,198.717395L459.864081,202.366165L462.055845,203.779793L463.712840,204.876327L464.220878,204.122816L463.041336,202.509051L461.470582,201.137089L459.061404,197.561541L459.115118,195.433781L458.234602,192.583730Z "/><path d="M700.135067,277.300219L699.823472,278.788270L700.633979,279.973196L701.288555,281.877997L703.693139,283.183886L706.578695,282.227045L706.176467,279.795623L707.769344,280.295703L708.437447,280.374651L710.442514,280.631513L712.004254,280.338940L712.741275,280.148294L713.429826,279.372989L713.132765,278.525210L714.258299,277.964631L715.499023,278.855732L716.010617,278.560761L716.915776,276.741842L717.279599,275.413313L718.298178,275.172688L718.553309,275.947947L719.128036,277.733148L719.683072,277.768614L720.017810,276.465752L720.786314,275.903440L720.992094,274.952777L722.812622,272.924930L724.430237,271.257948L725.446217,269.870983L726.386533,269.654894L727.574651,271.092189L727.742325,269.525797L729.032496,268.893427L730.243368,269.508215L730.488553,268.056030L729.399091,267.458192L729.668556,266.220495L730.882985,265.047381L732.063700,266.570610L733.345906,265.736308L733.929156,264.219006L735.107849,263.526980L736.172030,264.108164L737.383534,263.831042L738.330363,264.470192L739.025088,263.813010L740.387984,263.966430L740.432436,264.008272L741.665506,263.557374L741.804192,259.778999L741.661308,253.107458L740.414010,253.127129L740.381832,246.063659L739.314926,246.102857L735.794028,246.150037L735.801504,243.551214L734.013922,242.304906L731.838225,242.283698L727.356196,240.227957L726.178243,240.965571L725.633568,241.587421L724.631323,242.972740L723.171458,242.714607L722.172589,242.462765L720.451095,239.666635L719.747532,239.389120L718.568786,240.021452L716.156605,241.588386L713.895401,243.477073L711.897410,244.934416L709.539212,245.286528L708.228151,246.078369L707.744810,246.578208L708.416383,248.326635L708.937270,250.001912L709.158001,251.487458L708.812023,253.945787L708.076074,254.259626L707.853933,255.970257L707.329267,257.861544L705.026640,260.369557L703.621967,262.369661L703.077043,264.433309L702.344400,266.071417L701.608162,267.749169L703.049687,269.672043L704.295480,270.597727L706.681183,270.634838L708.568317,269.578129L709.656805,271.108542L708.124766,272.369761L705.776327,273.432029L702.947526,274.601206L701.140651,275.613020L700.135067,277.300219Z M699.758700,253.001978L699.506094,254.715092L701.010477,254.163807L701.840072,252.551340L702.499061,251.536717L701.166340,250.931313L699.758700,253.001978Z M679.965711,275.373114L680.514573,276.664102L680.888734,276.924330L682.491335,276.797400L683.037957,275.759826L682.288080,274.874780L681.343889,274.815013L679.965711,275.373114Z M665.517280,277.350094L665.216948,281.318383L665.878545,281.396479L665.240116,289.079080L665.778042,291.111090L669.962751,291.438075L676.166074,291.869521L676.277756,289.908004L680.872451,290.188106L681.000324,287.461416L682.979181,287.622555L683.373406,287.339463L682.730292,286.383364L681.906815,285.356615L680.879707,284.295029L679.428991,284.094297L678.296432,282.351503L677.066385,282.329362L675.321045,282.409381L673.706321,282.082207L672.329202,280.825522L672.506630,279.722373L672.973220,278.756980L673.318371,277.172412L674.518772,276.364646L675.009252,275.091759L675.944855,274.691235L676.752375,274.318536L678.178970,274.288020L678.822661,273.560662L678.171637,271.709443L679.126123,271.557268L680.446330,271.570206L680.806909,270.662209L680.984550,269.920958L682.623544,269.882439L683.842511,270.194700L684.694956,270.091196L685.764351,269.654302L687.076838,268.882160L687.578640,267.559044L687.761902,265.766636L688.331000,264.643768L689.618076,264.855726L691.613981,263.926547L691.924811,262.859032L693.271362,261.102807L693.639601,259.635455L693.351991,258.349385L693.434930,257.523628L693.892822,256.746010L695.483140,255.766603L695.952201,254.476522L697.703633,253.452140L696.911329,252.957149L696.614091,251.602273L697.506012,250.169898L699.033092,249.315590L700.250717,247.498438L701.975267,246.168210L704.117511,246.493006L704.281331,245.999593L703.466005,244.202806L703.225765,243.214540L704.197001,242.096157L705.656546,240.746181L707.090808,239.756039L708.630505,239.814449L709.778865,239.160287L710.787159,239.035466L711.329966,238.202455L712.227585,236.463995L713.126784,235.694968L713.139620,234.377270L708.947700,234.266910L709.023654,230.407353L689.740275,229.652624L684.342841,229.292015L683.877413,235.889626L684.023053,241.090425L683.911083,243.005839L683.929802,250.995857L682.327148,250.937182L681.809783,258.806800L680.295095,258.736902L679.829757,266.341519L678.268599,266.236984L678.127912,268.233590L676.021322,268.102410L675.763871,272.076119L673.674569,271.940411L673.569297,273.933871L669.950142,273.723056L669.712231,277.650995L665.517280,277.350094Z "/><path d="M942.789147,304.609008L941.662983,304.679826L944.207853,306.742132L945.706989,310.539361L947.153331,309.969217L948.722300,309.686682L950.137845,307.752973L951.515984,307.241063L953.255346,307.097430L954.754516,305.748247L955.143713,304.289537L954.633476,303.017181L952.689425,302.377965L951.584701,301.234046L950.043187,301.082579L948.228580,298.730516L946.144011,297.525930L943.445393,298.411160L944.530099,299.981972L941.907929,301.694027L942.789147,304.609008Z M934.134769,283.633181L934.646335,284.336324L934.932155,286.328829L935.924301,287.123280L937.502114,287.789409L937.926663,289.009996L939.137165,291.108179L939.319367,292.543141L939.021408,294.100147L940.541200,295.601729L942.678176,296.058476L943.474738,295.254104L944.895296,296.012178L947.990466,295.960502L948.929758,296.972299L951.115975,299.516117L954.786058,300.698804L955.219833,301.589466L957.143620,301.277171L957.908403,300.150328L958.059386,296.731398L959.456736,296.052878L959.211791,292.354404L954.857257,292.711016L955.538816,289.651515L953.172848,287.265477L949.723357,284.692228L947.864028,282.967499L945.853031,284.089253L944.879231,283.610383L945.136742,282.367976L944.421743,281.417715L943.235107,281.013852L943.050604,281.633907L940.294421,282.013009L938.802792,281.197962L938.031506,281.958057L935.954608,281.343373L935.568398,282.620511L934.134769,283.633181Z "/><path d="M626.431915,334.082939L625.815231,334.928879L627.935934,335.084496L629.536609,335.516629L630.552486,335.177567L629.116946,334.080073L628.082523,333.568140L626.431915,334.082939Z M591.337486,330.460053L590.627412,334.194837L591.881744,334.433271L590.645338,341.936993L589.799583,341.790373L589.434822,343.867969L593.547373,344.572082L592.615791,350.122912L593.193331,349.330263L595.219404,348.793287L599.849755,346.824536L599.997176,345.035257L602.811096,344.657273L604.868030,344.787750L606.158880,345.002305L606.484064,344.232610L608.174085,344.830318L609.285960,344.659694L610.011623,343.174538L610.518376,341.667174L611.874630,340.988806L614.289639,340.033163L613.285777,338.447582L612.266754,337.807144L610.629762,337.110132L609.648699,336.836478L610.617070,335.038437L611.637536,334.284837L612.849617,334.150248L613.317245,334.557597L614.889438,334.904395L617.024781,334.845233L618.336735,335.483809L619.200078,334.297694L618.665162,333.031415L618.251417,331.244500L620.024058,330.864427L620.940702,331.388325L621.402701,332.438156L622.363619,332.299546L623.801613,332.590229L624.470572,332.081863L623.159247,330.545306L623.747352,329.482496L625.404715,329.143082L627.087909,328.763128L628.407674,329.737615L630.064975,328.376732L630.707493,327.411617L632.116913,326.778376L633.509923,327.453923L635.359423,325.649910L636.255329,325.600233L637.386711,325.941321L638.544348,324.178002L639.150040,323.089590L640.155331,322.303888L635.207544,321.652575L635.400755,320.024275L636.423135,320.164653L636.582885,318.868344L637.409487,318.014358L638.988400,317.569488L639.087096,315.945220L641.115030,314.191702L644.188905,314.815396L645.160791,313.227674L646.733523,313.081200L647.037863,314.105857L648.190692,312.531766L647.601906,311.589553L649.296005,311.758983L649.719749,310.182059L650.435223,310.271288L650.550149,308.948988L652.559005,309.105370L653.815459,308.608755L653.913289,307.614242L655.418837,307.645738L655.760155,303.788390L656.413886,303.856734L656.547192,302.494805L656.060585,300.532293L657.475619,300.665018L657.562366,299.694590L659.654011,299.887227L660.395687,298.714484L663.966070,298.707143L664.026103,298.074720L666.062111,298.235387L666.116875,297.611864L667.442664,297.704220L667.968834,296.441110L668.997940,296.540848L669.678394,295.635369L669.962751,291.438075L665.778042,291.111090L665.240116,289.079080L665.878545,281.396479L665.216948,281.318383L665.517280,277.350094L669.712231,277.650995L669.950142,273.723056L673.569297,273.933871L673.674569,271.940411L675.763871,272.076119L676.021322,268.102410L678.127912,268.233590L678.268599,266.236984L679.829757,266.341519L680.295095,258.736902L681.809783,258.806800L682.327148,250.937182L683.929802,250.995857L683.911083,243.005839L684.023053,241.090425L672.439434,240.330499L654.393184,238.676414L652.596475,256.753790L651.562208,266.408258L649.530526,266.241557L649.305304,268.196430L645.134399,267.709473L644.913167,269.651136L642.838278,269.390145L642.599726,271.385853L641.421359,271.223602L641.212134,273.187898L636.986791,272.614197L636.732683,274.567384L634.641317,274.263603L634.167344,278.241031L635.165349,278.394343L634.673785,283.080112L635.151375,282.950449L635.785395,282.567922L645.199311,283.510565L644.496274,289.913636L632.819964,288.521079L631.826984,289.412232L629.464606,291.022857L628.406485,293.237519L628.032866,295.457588L628.708352,296.915342L627.531412,298.326932L626.842650,299.594507L625.600938,304.427168L624.725627,306.924695L624.101685,309.026976L624.280902,310.129919L624.212145,311.167424L622.946366,311.378054L620.661216,312.672447L618.306456,315.045665L616.286272,315.566200L614.977608,316.284527L611.721099,319.198551L609.293764,322.094457L608.941458,323.792736L609.242978,325.306112L608.991749,326.108241L607.773741,326.260467L606.325352,326.092919L605.854505,325.643179L605.692495,326.867148L603.869514,326.583410L603.571274,328.460790L600.302352,327.880853L599.973647,329.893951L595.756163,329.193265L595.422939,331.103882L591.337486,330.460053Z "/><path d="M798.356540,257.994775L798.541025,259.202653L799.739658,258.572984L801.570922,257.758021L805.804437,256.783884L808.171631,256.273391L810.031617,255.548937L811.989245,255.215779L815.876285,255.236686L820.391846,255.702356L822.240236,255.762344L824.508993,256.531473L826.202299,256.283414L827.649827,256.912274L828.947504,257.975901L831.990187,258.801492L835.031269,259.740033L836.686444,260.003430L841.392103,259.887973L843.482381,259.801643L844.098244,258.591442L845.174072,257.937173L847.509305,256.460067L848.518400,255.560956L850.586852,255.457939L851.286233,257.929325L851.592988,259.395898L849.774723,260.161995L848.647830,262.138883L851.768517,263.568689L854.684128,264.872636L856.676671,265.471784L859.321653,266.122866L861.338603,266.619919L862.885934,267.231167L865.315012,268.548415L869.002735,269.208854L870.809414,269.692173L873.095406,270.945458L874.833706,272.217764L875.369346,273.075467L875.387181,273.998778L879.974854,270.618754L879.961189,270.622663L879.912620,268.786010L877.375245,263.414159L863.166495,254.636634L862.285307,253.889565L861.060899,251.416814L856.570268,250.269685L854.343690,248.565329L854.746678,243.110674L854.549403,242.368012L847.408788,244.102607L844.585408,248.180189L838.372636,246.368247L837.950463,248.422818L832.110921,247.492449L831.807481,245.576945L829.298524,245.951873L829.147538,244.980976L822.686362,245.984200L822.320176,243.895401L820.008824,244.371700L809.843534,245.844122L805.775701,246.287607L798.356540,257.994775Z "/><path d="M755.740540,165.187368L756.471684,172.919548L756.968143,182.939571L762.180887,182.569597L762.672121,189.614184L764.327824,189.116393L766.381476,189.130908L766.644879,188.262002L777.060293,187.444098L777.236204,189.457679L783.452212,188.903032L791.071203,188.596166L799.185828,187.609131L799.893953,189.987896L800.884263,190.206477L800.760287,191.561821L799.216538,194.256491L801.445335,195.367089L800.216630,197.234073L800.135865,198.487356L800.799458,198.946431L803.738080,198.957302L804.604524,196.441069L805.832497,196.705175L809.283830,196.242293L809.476831,198.176242L811.612390,197.965230L811.832003,199.849667L813.682908,199.619680L814.618394,207.432398L814.305686,208.336233L816.394184,208.040012L817.143886,213.138252L826.443255,211.713886L812.377595,122.914431L811.540559,123.325509L809.582928,126.312993L809.413196,128.592073L805.852536,131.732077L805.376665,133.090844L803.245152,132.939538L800.936116,133.827654L799.770459,135.268316L798.167491,135.342695L797.030711,137.555864L797.335934,139.081298L796.280055,141.366599L794.155623,142.077067L792.732806,143.824980L791.453805,144.330194L791.648783,145.231706L790.123916,146.257301L790.604937,148.547638L791.409906,149.387192L790.486399,149.888287L790.847252,150.918845L789.626908,153.002617L788.605318,153.618688L785.363352,153.141134L785.340644,153.855943L782.938525,154.342260L782.941800,154.932580L781.483325,155.842214L780.560125,155.548264L778.617479,155.871113L778.132473,156.460637L776.211491,156.579657L775.357361,158.006366L772.435330,158.850331L772.394812,159.559227L770.795746,160.569349L768.577409,159.758733L766.798616,160.733954L765.987709,161.704214L764.369201,161.760897L763.574306,162.464571L763.677523,163.538424L762.445322,164.351512L759.787175,164.938629L755.740540,165.187368Z "/><path d="M602.358710,193.174853L600.831367,200.849989L602.343079,201.196341L601.202675,206.884361L605.434123,207.734836L619.632902,210.251905L619.995899,208.318595L628.163786,209.604393L628.442649,207.647543L639.813462,209.136927L644.791110,209.628085L644.517228,211.894372L660.055605,213.636889L671.776291,214.711036L682.160783,215.460363L682.243534,213.363979L686.139186,213.533694L686.264990,211.618799L689.906369,211.838073L690.041409,209.869549L690.786219,209.906298L691.300527,200.080600L697.989678,190.305150L698.117456,187.203070L696.037528,187.213014L696.128135,186.183040L694.088108,185.984211L694.323377,183.030471L693.982395,179.114484L700.514400,179.291598L700.752237,175.485511L702.641060,175.556356L702.871767,171.522329L705.218500,171.492217L705.636997,169.747391L707.859185,169.742139L708.396307,170.965886L710.741515,171.537693L712.537360,168.762898L716.661395,163.527212L727.912984,163.735650L733.613732,163.652881L733.728618,163.998956L745.325156,163.749046L744.122315,163.225207L742.061671,160.558450L739.270225,157.676139L738.352438,158.249894L738.303341,151.967287L737.903206,144.063246L749.103178,143.700688L751.203095,142.179765L754.367635,141.630689L755.069844,141.974682L758.782834,140.137585L759.478831,138.598167L762.376131,137.392139L763.173896,138.455401L764.423696,138.364481L763.144900,140.660281L763.840173,142.095760L765.939405,142.664608L768.653603,144.068620L767.381816,145.216874L768.534624,146.611809L770.518137,145.697237L772.869150,145.362934L775.112948,143.729477L778.067393,144.149862L780.596125,144.908450L782.463620,143.425023L785.167709,143.139993L786.173600,143.695131L784.129690,145.630189L785.366578,146.387830L784.491955,150.589627L785.363352,153.141134L788.605318,153.618688L789.626908,153.002617L790.847252,150.918845L790.486399,149.888287L791.409906,149.387192L790.604937,148.547638L790.123916,146.257301L791.648783,145.231706L791.453805,144.330194L792.732806,143.824980L794.155623,142.077067L796.280055,141.366599L797.335934,139.081298L797.030711,137.555864L798.167491,135.342695L799.770459,135.268316L800.936116,133.827654L803.245152,132.939538L805.376665,133.090844L805.852536,131.732077L809.413196,128.592073L809.582928,126.312993L811.540559,123.325509L812.377595,122.914431L812.375249,122.899624L802.821529,62.571093L791.098147,64.488818L782.797050,65.358615L773.991567,66.094198L764.565020,67.104816L759.441299,67.710624L760.256124,78.928424L747.799802,79.653949L724.371170,80.209358L705.494820,79.787743L697.687014,79.473082L677.136122,77.979432L676.763098,81.127506L676.167681,83.116152L678.168736,83.313172L677.963278,85.335138L680.022987,85.483228L679.796478,87.452806L681.832548,87.616447L681.648892,89.670613L680.607547,95.536700L684.681644,95.932931L684.560650,98.008344L686.016724,98.089199L685.846281,102.115289L685.457888,106.272161L684.740250,108.251889L678.512268,107.750734L678.190027,111.160428L672.050034,110.566869L671.470525,112.525284L671.012644,116.455835L667.006063,116.028695L667.211486,114.029737L665.147528,113.885055L665.366645,111.954049L661.299728,111.512400L660.816443,115.472266L656.748411,115.050841L657.244580,111.026934L649.272967,110.026655L648.148678,118.012201L637.865948,116.531084L637.264197,120.292824L631.206804,119.284765L629.559317,129.126328L631.588755,129.455106L630.631367,135.366436L628.715589,135.022843L627.441152,142.675935L625.429361,142.348087L624.792112,146.249742L622.722576,145.931355L621.522488,153.782685L620.184519,161.672895L622.525490,162.047936L621.856351,167.957830L619.437687,167.505526L619.098180,169.539213L617.261100,169.243276L616.970659,171.228716L612.802950,170.488759L612.469082,172.202567L610.388074,171.825665L609.625366,175.817512L609.484061,177.825422L607.603207,177.505180L606.461432,183.242006L605.426787,183.363300L604.436500,185.514288L602.358710,193.174853Z "/><path d="M966.994398,323.140179L967.582943,324.144048L968.745786,324.651809L970.995195,325.154712L972.971745,325.487171L973.086263,326.289799L973.900225,329.126587L974.982455,330.909497L976.538320,332.043317L978.379856,331.879894L977.162738,328.359279L977.718802,327.589542L982.213556,328.899082L982.418380,333.297177L979.378073,334.464282L979.507201,335.348350L979.982734,335.553021L981.368828,335.107788L982.386938,335.564542L984.072823,335.878859L985.009166,335.381089L985.410792,333.993724L984.582431,333.786119L984.229407,332.747699L984.590348,331.358770L984.114944,329.989012L983.869705,327.958518L984.798974,327.786136L985.087832,328.356264L985.880997,329.145275L986.604746,329.560790L987.153161,330.455405L987.302706,331.539322L987.952196,331.821241L988.447514,332.623843L988.964467,333.555568L989.745950,335.172168L990.901698,335.667383L991.230185,335.630613L991.787832,334.987559L992.750508,335.390868L993.707552,335.923035L994.320538,335.176779L993.914585,334.393173L995.111263,333.202721L996.814050,329.977314L997.591989,327.214164L997.681559,325.294074L997.898968,323.228678L998.678746,321.146990L998.646313,320.265370L997.828359,319.701531L996.917024,317.861944L995.847935,316.771154L994.842742,315.411087L994.053119,312.883472L993.211187,312.114823L993.091770,311.303790L991.451113,310.672077L988.481605,308.664089L989.411039,307.041175L990.240180,306.710991L988.905125,305.872180L989.169202,304.762008L987.677358,304.574955L986.522725,304.664728L985.248179,302.758423L983.041281,302.868287L980.969713,301.811121L979.864145,301.528658L976.080893,301.992921L976.052331,301.981842L976.464858,303.554321L977.684267,303.632827L978.164229,304.420708L977.347644,306.572636L975.820614,307.665689L975.370919,306.968480L973.502711,309.392578L974.856388,310.384375L975.292323,311.466915L973.536953,312.029294L972.929047,311.427302L970.930011,310.894812L970.795305,312.197110L968.975579,312.662147L969.174383,315.131203L968.010271,317.728796L969.388722,318.608157L969.138525,319.751491L969.710902,320.804519L968.377400,320.997942L968.297917,322.206037L966.994398,323.140179Z "/><path d="M890.938677,259.336212L890.800099,259.879129L892.395939,260.184003L895.509390,260.000728L896.504718,260.458171L898.482744,260.074753L901.163599,260.997717L901.816233,262.867863L903.237658,263.219564L903.437289,264.953407L904.548823,265.135534L902.777071,266.318004L902.505475,269.086777L905.307388,269.394595L905.793688,270.256570L907.567454,270.725532L907.605964,271.449611L909.252141,272.981968L907.094032,273.559433L908.211420,275.536444L908.478993,276.960004L909.044896,276.708516L910.873772,278.563272L911.885536,278.437472L913.833700,278.780151L913.131721,276.807987L913.679988,276.272395L913.063444,274.922940L912.183833,273.404042L912.667203,273.229313L907.742965,262.304381L918.594831,259.620768L917.634650,259.589507L917.534238,258.239867L915.748094,256.553757L914.719261,256.833761L913.231540,256.003441L912.373713,254.676264L909.068323,254.810274L907.881885,253.607318L903.756437,254.808018L897.438724,247.370092L895.135765,249.467687L892.354692,250.715795L890.659731,252.073710L892.231023,252.635603L892.451221,253.373486L891.367538,255.381989L889.896499,255.402540L890.938677,259.336212Z "/><path d="M737.903206,144.063246L738.303341,151.967287L738.352438,158.249894L739.270225,157.676139L742.061671,160.558450L744.122315,163.225207L745.325156,163.749046L747.619237,165.551055L755.740540,165.187368L759.787175,164.938629L762.445322,164.351512L763.677523,163.538424L763.574306,162.464571L764.369201,161.760897L765.987709,161.704214L766.798616,160.733954L768.577409,159.758733L770.795746,160.569349L772.394812,159.559227L772.435330,158.850331L775.357361,158.006366L776.211491,156.579657L778.132473,156.460637L778.617479,155.871113L780.560125,155.548264L781.483325,155.842214L782.941800,154.932580L782.938525,154.342260L785.340644,153.855943L785.363352,153.141134L784.491955,150.589627L785.366578,146.387830L784.129690,145.630189L786.173600,143.695131L785.167709,143.139993L782.463620,143.425023L780.596125,144.908450L778.067393,144.149862L775.112948,143.729477L772.869150,145.362934L770.518137,145.697237L768.534624,146.611809L767.381816,145.216874L768.653603,144.068620L765.939405,142.664608L763.840173,142.095760L763.144900,140.660281L764.423696,138.364481L763.173896,138.455401L762.376131,137.392139L759.478831,138.598167L758.782834,140.137585L755.069844,141.974682L754.367635,141.630689L751.203095,142.179765L749.103178,143.700688L737.903206,144.063246Z "/><path d="M951.988810,313.740781L953.024817,315.775747L955.118632,316.876095L955.568344,317.017192L954.775975,316.154691L955.565685,315.813606L954.408585,314.550393L953.036869,313.767141L951.988810,313.740781Z M950.902099,311.556232L950.996615,311.887991L951.620467,312.055569L952.640361,312.201929L953.283790,312.708007L954.094006,313.065844L954.543744,312.959754L956.315500,312.909184L957.144738,315.130960L959.242928,316.595808L960.267864,315.225829L961.573602,317.405316L962.784930,318.839350L963.939364,319.106896L964.009257,317.368278L965.483543,317.027638L967.132147,317.535481L966.745167,319.159497L965.314394,320.777712L966.265110,321.894163L966.994398,323.140179L968.297917,322.206037L968.377400,320.997942L969.710902,320.804519L969.138525,319.751491L969.388722,318.608157L968.010271,317.728796L969.174383,315.131203L968.975579,312.662147L970.795305,312.197110L970.930011,310.894812L972.929047,311.427302L973.536953,312.029294L975.292323,311.466915L974.856388,310.384375L973.502711,309.392578L975.370919,306.968480L975.820614,307.665689L977.347644,306.572636L978.164229,304.420708L977.684267,303.632827L976.464858,303.554321L976.052331,301.981842L974.723886,301.464927L970.246403,300.620461L968.254525,299.738646L965.087856,301.055622L963.179291,298.105088L963.200068,296.873867L959.481528,296.434880L959.456736,296.052878L958.059386,296.731398L957.908403,300.150328L957.143620,301.277171L955.219833,301.589466L955.336395,301.828649L955.944882,303.142363L957.449202,304.406973L956.682730,305.468675L955.853760,307.290889L953.822485,308.245244L952.413621,308.473256L951.488686,309.186903L950.943238,311.260954L950.902099,311.556232Z "/><path d="M588.848977,61.273135L588.937468,61.351525L590.580475,64.037706L594.249526,69.918248L596.263021,72.191020L597.595819,74.550031L598.294081,78.282638L598.398447,83.187705L598.199906,85.518286L599.110052,86.141223L601.586434,87.480266L604.035710,88.789025L605.374718,90.000481L607.303716,90.265683L608.739280,91.004895L608.608365,91.672402L607.312600,92.483432L606.686559,93.395839L607.254490,96.276568L608.576407,96.939060L609.999283,98.162832L610.331327,99.765387L611.950390,102.717070L611.809744,103.905994L610.796114,106.272128L613.100135,105.659178L614.220586,105.875079L616.473657,106.992781L618.431752,108.630012L618.977667,110.622674L616.930950,110.770461L615.833509,110.256294L615.782361,109.508885L614.460504,109.070595L613.753460,109.453609L612.842099,110.747090L610.828962,112.741782L609.994001,113.765524L607.411686,111.905263L605.340040,112.562256L604.547779,111.975653L602.614800,111.768473L601.651838,110.361514L599.246955,110.125087L597.743757,110.184695L595.746454,109.112274L594.579013,108.824954L592.554779,108.944959L591.754602,107.792836L591.188728,105.516867L591.298896,104.726886L592.259026,104.142111L592.464652,103.064102L592.688601,101.196290L593.643632,100.300467L594.633895,99.085777L596.108976,98.038177L594.255721,96.792274L588.877525,95.690290L588.877497,95.690292L588.316981,98.030130L589.027526,98.219500L587.085629,105.901921L587.766691,106.108911L585.789187,113.808307L588.422151,114.458678L587.454528,118.340460L589.493771,118.850714L588.565883,122.676619L597.065122,124.674970L605.284396,126.460255L615.170188,128.450253L627.155366,130.733328L627.527187,128.779139L629.559317,129.126328L631.206804,119.284765L637.264197,120.292824L637.865948,116.531084L648.148678,118.012201L649.272967,110.026655L657.244580,111.026934L656.748411,115.050841L660.816443,115.472266L661.299728,111.512400L665.366645,111.954049L665.147528,113.885055L667.211486,114.029737L667.006063,116.028695L671.012644,116.455835L671.470525,112.525284L672.050034,110.566869L678.190027,111.160428L678.512268,107.750734L684.740250,108.251889L685.457888,106.272161L685.846281,102.115289L686.016724,98.089199L684.560650,98.008344L684.681644,95.932931L680.607547,95.536700L681.648892,89.670613L681.832548,87.616447L679.796478,87.452806L680.022987,85.483228L677.963278,85.335138L678.168736,83.313172L676.167681,83.116152L676.763098,81.127506L677.136122,77.979432L677.187153,77.333156L668.860110,76.519654L669.092353,74.183427L661.006937,73.465702L661.215133,71.411910L652.945922,70.133410L651.395326,70.047338L638.800001,67.939717L639.005738,66.403289L635.493201,65.713430L635.303628,67.252004L626.853695,65.642759L627.100133,64.092663L623.429571,63.354317L623.145733,64.911476L619.022285,63.995558L619.331635,62.439994L613.123304,60.870887L612.784085,62.406161L609.955075,61.853784L597.439716,58.814702L596.317903,63.354795L588.848977,61.273135Z "/><path d="M587.073055,272.164217L586.365696,275.813946L586.825536,275.653082L588.543692,275.323195L588.933737,276.532249L590.465598,274.707850L593.485319,273.204757L596.171918,272.338023L596.618846,274.164001L595.636997,274.916110L596.537815,276.291976L597.415778,277.254360L599.416951,278.309650L600.081011,279.701299L601.685399,278.970036L602.439128,277.911659L603.090630,276.794297L604.286933,276.949147L604.286199,278.023958L603.620020,278.818177L604.957655,279.306426L606.258810,280.896842L607.899868,285.067531L609.327565,289.408719L611.512982,290.495208L612.653038,290.276159L614.059297,288.787043L612.998929,285.343350L612.821556,283.736290L614.035454,282.594922L614.083346,281.439028L614.570240,280.153615L616.570169,279.390640L617.624059,280.781378L616.887260,281.912576L618.536645,282.909203L619.051127,283.482753L619.340003,285.412640L620.443829,286.609007L621.582386,286.884107L626.402775,285.546484L629.118561,284.829371L631.578822,283.911279L634.673785,283.080112L635.165349,278.394343L634.167344,278.241031L634.641317,274.263603L636.732683,274.567384L636.986791,272.614197L641.212134,273.187898L641.421359,271.223602L642.599726,271.385853L642.838278,269.390145L644.913167,269.651136L645.134399,267.709473L649.305304,268.196430L649.530526,266.241557L651.562208,266.408258L652.596475,256.753790L654.393184,238.676414L643.407661,237.454307L640.285011,236.947361L640.519808,234.965395L636.410963,234.427791L636.153573,236.435031L634.064791,236.156409L633.832759,238.133551L631.697329,237.814329L631.910153,236.035701L625.347404,235.148629L619.547756,234.212782L619.214679,236.004301L618.455656,235.877973L618.109024,237.924773L616.151905,237.631043L615.813390,239.563506L613.677761,239.220185L613.010544,243.090155L612.266387,242.969265L611.904348,244.835703L609.819984,244.471615L609.167136,248.341716L607.129320,248.023760L606.773645,249.919123L606.019890,249.781779L605.321873,253.447115L603.389207,253.218431L602.661272,257.045344L599.900560,256.604943L599.173246,260.456485L597.073320,260.068636L596.348316,263.973408L595.660204,263.839141L595.328825,265.709571L593.242550,265.390227L592.885615,267.323141L590.799900,266.944057L590.071764,270.869349L589.372077,270.753978L589.048735,272.541126L587.073055,272.164217Z M584.940644,280.210058L584.604813,282.114063L586.045618,282.307096L587.172392,281.890181L590.513335,277.956208L590.404772,277.082322L587.405849,278.128601L585.501286,278.787461L584.940644,280.210058Z M582.182993,275.344318L581.777806,277.281525L582.116562,277.352685L582.191219,277.195415L583.781530,276.710840L585.654366,276.062033L582.182993,275.344318Z "/><path d="M914.222214,273.921606L914.729159,275.693399L916.722368,278.461967L918.302118,280.326870L918.889512,281.754313L921.331610,280.166442L921.347531,279.153989L924.479281,277.156697L924.473391,277.155983L923.620916,277.625256L921.839414,277.554104L919.941697,277.790316L918.873368,278.320594L918.294128,277.353317L917.994502,276.852258L917.020814,275.844018L915.671848,274.616619L914.222214,273.921606Z M907.742965,262.304381L912.667203,273.229313L914.198269,272.673309L916.880997,273.487659L919.212426,276.218323L921.392607,276.084866L922.606930,276.183565L924.420286,275.942652L925.495099,275.594974L926.632584,276.373716L927.543297,278.223725L930.826088,280.247354L933.436260,282.717792L933.542943,282.818300L933.554243,282.833873L937.773012,273.145197L934.931992,271.156588L932.750030,269.109916L933.474970,267.896627L928.425851,265.168259L925.955926,263.049883L920.176092,261.648341L918.850413,260.577397L918.594831,259.620768L907.742965,262.304381Z "/><path d="M739.253929,243.557116L739.314926,246.102857L740.381832,246.063659L740.414010,253.127129L741.661308,253.107458L741.804192,259.778999L741.665506,263.557374L740.432436,264.008272L741.068582,264.606199L742.952774,264.104478L743.864779,263.127722L744.891996,261.829230L746.064087,263.096535L745.687746,264.104595L747.529907,263.583066L749.279173,263.373218L750.588033,265.307175L749.907603,266.119048L749.757076,267.331754L750.418162,267.760053L751.750439,266.983263L753.183433,266.430392L754.839405,265.813713L756.221568,264.940952L755.238054,264.328584L755.410115,263.249561L756.766398,263.004505L756.266117,261.801582L757.603571,259.660212L758.891763,258.158661L760.639971,256.509496L761.502045,255.308947L764.186419,255.417018L764.753224,256.215275L765.274301,256.225435L766.604387,254.925063L767.728033,254.116519L769.634753,253.735357L770.045062,253.493760L771.325038,253.028314L772.480651,252.438521L774.422152,253.143367L776.802167,254.063885L778.311235,253.576094L779.813282,252.671437L781.388942,253.483212L782.830764,253.708314L783.354407,253.122408L784.988404,253.704806L785.449843,255.026361L788.790695,255.253496L790.045080,255.735655L791.623185,256.276751L792.715401,257.462917L794.608365,256.686032L795.569506,256.997972L796.398576,258.213877L797.028966,258.803149L798.406955,259.272886L798.541025,259.202653L798.356540,257.994775L805.775701,246.287607L809.843534,245.844122L820.008824,244.371700L822.320176,243.895401L822.686362,245.984200L829.147538,244.980976L829.298524,245.951873L831.807481,245.576945L826.443255,211.713886L817.143886,213.138252L816.394184,208.040012L814.305686,208.336233L814.618394,207.432398L813.682908,199.619680L811.832003,199.849667L811.612390,197.965230L809.476831,198.176242L809.283830,196.242293L805.832497,196.705175L804.604524,196.441069L803.738080,198.957302L800.799458,198.946431L800.135865,198.487356L800.216630,197.234073L801.445335,195.367089L799.216538,194.256491L800.760287,191.561821L800.884263,190.206477L799.893953,189.987896L799.185828,187.609131L791.071203,188.596166L783.452212,188.903032L777.236204,189.457679L777.060293,187.444098L766.644879,188.262002L766.381476,189.130908L764.327824,189.116393L762.672121,189.614184L763.005295,194.473864L763.714468,196.630305L764.108922,204.644179L764.614335,210.630627L758.378188,210.956481L758.710487,212.954857L759.179374,220.866486L759.727499,228.516482L756.720761,228.653620L756.772214,229.783970L742.273374,230.293790L742.204747,236.245716L742.466333,243.377259L739.253929,243.557116Z "/><path d="M989.411039,307.041175L988.481605,308.664089L991.451113,310.672077L993.091770,311.303790L992.944514,310.306954L993.323255,309.765827L993.539060,307.485028L993.064317,305.821244L990.853946,303.682170L989.169202,304.762008L988.905125,305.872180L990.240180,306.710991L989.411039,307.041175Z M978.554367,333.567103L979.317174,334.048198L979.378073,334.464282L982.418380,333.297177L982.213556,328.899082L977.718802,327.589542L977.162738,328.359279L978.379856,331.879894L978.594987,331.860516L978.937877,332.182340L978.554367,333.567103Z M942.281987,324.063621L942.851790,325.307966L943.705970,325.328354L945.900295,324.956616L946.219877,326.083145L947.339302,327.065344L946.799227,328.829533L947.062346,330.318013L947.044594,331.462471L947.102100,333.460007L948.339879,333.172125L949.478036,333.739916L949.796168,334.925065L949.388007,336.371301L950.266384,337.786362L951.185417,337.853058L950.749409,335.869214L952.508913,335.981753L952.676375,336.729038L953.789336,337.157386L954.698075,337.102913L955.420578,336.619714L956.202685,336.811654L956.836472,338.067845L956.792280,339.119644L957.738829,340.212392L958.548619,341.287095L959.812393,342.256383L961.918999,343.904096L963.139768,344.411849L963.896794,344.868067L964.395383,345.962379L966.114209,346.065252L967.173740,345.702585L967.129022,343.877123L968.696916,342.729168L970.105671,342.205593L970.833789,342.757322L971.844847,343.196946L972.879646,342.714649L973.945177,343.102614L975.728252,342.359026L975.923433,341.572608L976.076228,340.130536L974.997013,337.977241L974.080069,335.215720L972.975841,333.771203L973.118067,331.931357L971.671406,330.185679L970.391824,330.287296L967.767789,328.128144L969.008228,326.747268L966.278638,325.435625L964.426817,323.337208L963.313633,323.489726L962.475159,321.210251L959.665333,319.056261L956.043485,317.533380L955.568344,317.017192L955.118632,316.876095L953.024817,315.775747L951.988810,313.740781L951.439918,313.726384L949.956198,312.583259L949.333652,312.343760L946.460584,313.226008L944.199726,313.418923L943.394087,314.254366L943.676294,315.239626L943.846706,316.557017L944.816321,318.492906L944.891279,319.497271L944.289438,320.957197L943.577216,322.678088L942.281987,324.063621Z M930.532404,305.386659L930.456562,306.386354L931.931284,309.559474L933.197654,310.330631L933.350651,311.822932L934.359685,311.514526L935.080276,311.882507L934.906210,313.948736L935.317980,314.969838L935.009260,316.452949L935.665065,318.158510L936.691530,320.673693L938.053991,322.601721L937.534039,325.286046L936.420455,325.545451L937.318368,327.206560L937.960492,327.818282L938.515634,326.909543L938.940596,326.042215L939.901453,324.886004L939.715968,323.319186L939.144344,322.415444L939.197912,320.883876L940.151891,320.768990L940.888089,320.483489L940.980118,319.183182L940.581233,318.501146L941.110077,317.342476L940.840953,316.190016L941.116184,315.084625L940.835917,313.488440L942.677880,311.766481L945.131279,310.765368L945.706989,310.539361L944.207853,306.742132L941.662983,304.679826L942.789147,304.609008L941.907929,301.694027L944.530099,299.981972L943.445393,298.411160L943.237707,298.478827L940.429022,298.463987L937.625438,298.502651L935.570754,298.500731L934.171629,299.445209L933.936377,300.573473L935.991577,301.566438L937.384348,303.867357L936.685630,305.013290L935.580784,304.254566L934.611114,302.863070L933.127439,302.492009L932.672167,303.167030L931.675209,303.402256L930.532404,305.386659Z "/><path d="M690.786219,209.906298L689.740275,229.652624L709.023654,230.407353L708.947700,234.266910L713.139620,234.377270L713.126784,235.694968L713.512316,235.364318L714.822956,234.973705L716.549741,234.144869L718.224525,234.075526L719.511480,234.635231L722.074870,234.331503L721.891908,235.737799L724.433050,235.144928L725.646769,234.164510L726.863576,231.393767L731.855097,229.197726L733.262609,229.198533L733.859803,230.504873L742.273374,230.293790L756.772214,229.783970L756.720761,228.653620L759.727499,228.516482L759.179374,220.866486L758.710487,212.954857L758.378188,210.956481L764.614335,210.630627L764.108922,204.644179L763.714468,196.630305L763.005295,194.473864L762.672121,189.614184L762.180887,182.569597L756.968143,182.939571L745.617824,183.662438L745.692721,186.831977L737.999697,186.933145L729.789525,187.141646L724.435561,189.690908L703.635145,199.058882L703.534559,200.704879L697.780962,200.488289L691.300527,200.080600L690.786219,209.906298Z "/></g></svg>