<?xml version="1.0" encoding="utf-8"?><!DOCTYPE svg  PUBLIC '-//W3C//DTD SVG 1.1//EN'  'http://www.w3.org/Graphics/SVG/1.1/DTD/svg11.dtd'><svg enable_background="new 0 0 1000 795" height="795px" pretty_print="False" style="stroke-linejoin: round; stroke:#000; fill: none;" version="1.1" viewBox="0 0 1000 795" width="1000px" xmlns="http://www.w3.org/2000/svg" xmlns:xlink="http://www.w3.org/1999/xlink"><defs><style type="text/css"><![CDATA[path { fill-rule: evenodd; }]]></style></defs><metadata><views><view h="795.581086967" padding="0" w="1000"><proj flip="auto" id="robinson" lon0="-156.945644349"/><bbox h="55.58" w="69.94" x="-2324.13" y="-372.8"/></view></views></metadata><g class="" id="countylayer"><path d="M635.393296,247.011219L634.280423,251.402412L642.370940,253.104050L648.048969,256.710543L651.298800,264.057572L655.117475,263.543897L653.583702,254.592570L652.912852,254.581403L646.703122,244.273677L642.314991,244.257640L635.393296,247.011219Z "/><path d="M684.757764,314.048661L685.582866,321.207797L693.300048,337.838826L707.340850,346.251059L710.409094,348.091296L718.170702,343.051470L724.418046,345.135619L724.706210,353.945208L724.528889,358.080483L723.084504,377.387257L722.303254,391.240616L732.460435,395.959986L752.818323,391.636769L769.988127,383.969840L786.609251,384.208010L806.561247,375.260726L817.106854,367.322868L823.096350,356.268726L822.200272,343.989301L811.367043,340.400027L799.090696,328.233373L787.935298,320.907395L780.582944,309.929449L762.345064,307.868049L746.005529,315.198326L728.888524,319.417594L724.251516,305.902394L718.574309,291.180334L707.448550,288.397494L692.052193,299.774684L684.757764,314.048661Z M670.650942,400.392600L662.518779,406.965174L667.916616,413.598802L685.444420,411.929682L696.004132,408.115819L698.227162,395.555933L694.607558,389.624408L684.939123,392.287370L670.650942,400.392600Z M609.837583,315.777347L608.105561,322.664567L616.520429,329.883311L618.909838,336.555114L616.299998,348.691145L618.735979,358.462510L631.187778,357.396616L635.384123,356.122714L647.273964,351.402432L656.600686,338.040850L653.098728,327.705336L647.364679,320.260155L635.728747,312.936816L620.949559,311.863748L609.837583,315.777347Z M578.476071,257.127515L568.299231,270.724326L579.578680,274.065124L596.531538,273.339613L616.028527,270.640789L626.593303,273.743180L640.290142,279.221493L655.251392,283.249502L671.796419,278.990028L687.331117,268.400346L696.277459,257.073897L690.404026,252.870909L669.334106,254.854756L653.583702,254.592570L655.117475,263.543897L651.298800,264.057572L648.048969,256.710543L642.370940,253.104050L634.280423,251.402412L635.393296,247.011219L629.505563,249.353458L611.816817,246.821227L597.505244,242.558155L585.727540,241.029577L585.658667,250.911238L578.476071,257.127515Z "/><path d="M404.955547,155.307367L395.240802,156.508279L401.696363,169.657242L399.221888,178.335980L406.337128,192.106016L405.567124,198.275194L411.874150,205.575843L412.387866,211.522669L412.473554,212.513126L415.184366,223.743644L418.345214,223.528216L432.171815,221.014887L441.457885,219.435559L447.645426,220.246766L459.890322,221.685108L466.706358,226.943948L473.763393,233.366094L480.342738,231.558415L485.786359,228.506998L496.822391,231.858099L503.580038,227.023896L508.737644,221.019605L509.687595,219.913809L500.054344,209.238132L499.780543,198.511926L503.370239,185.128010L494.774563,184.622947L483.342457,189.658019L478.318069,183.327495L483.731281,168.199973L477.977933,157.348941L472.586053,139.179382L467.036450,124.453057L461.859724,125.579060L447.626824,134.384317L439.075024,144.704514L427.206897,154.605298L404.955547,155.307367Z "/><path d="M787.573943,793.581087L795.959357,787.773468L802.532708,780.907873L809.404144,771.983783L820.125783,757.210785L834.274940,740.803417L845.810587,737.441086L861.563539,725.657415L868.242264,723.799816L880.352737,713.800079L891.776761,708.170343L903.266195,711.355936L913.295276,709.568020L924.151721,704.244023L945.659759,694.499124L964.295576,682.400671L981.149375,670.102158L997.432158,653.960359L999.370738,646.911880L992.470725,642.343624L975.871279,629.012872L971.760348,622.227119L973.502272,608.465139L970.901567,596.830772L962.833872,596.701977L953.512037,599.529466L955.311668,587.953576L960.660320,569.034224L955.006015,559.006446L948.507819,549.286826L931.179079,530.943775L909.713971,518.353699L888.421290,507.094195L877.672714,502.925402L869.163871,504.608477L862.548080,497.783306L850.792907,488.532790L845.724222,481.093442L834.606365,473.590927L824.272284,469.417902L815.610122,473.321630L808.770918,492.032967L808.334303,504.839000L813.323815,519.457966L816.480373,528.210259L812.751395,538.541980L806.865781,541.867045L797.371020,550.658035L790.080012,561.439114L781.440000,568.642822L775.387414,570.199815L767.414672,578.087744L756.349844,586.975896L750.550604,598.870413L753.608590,613.601868L753.457075,618.182015L759.552628,619.925308L761.701856,628.222137L760.669490,640.717853L760.569966,657.311760L764.334274,665.149596L765.475058,674.355910L766.013707,690.497660L762.874225,702.258840L758.217281,711.949674L751.896914,730.938140L747.076622,750.083375L750.459697,765.047614L764.920975,770.476886L779.156074,781.138194L787.573943,793.581087Z "/><path d="M200.883703,0.000000L194.077247,3.013423L183.010546,0.739951L176.730700,6.955425L170.955683,2.611251L163.378796,2.182027L155.721237,7.472502L133.769415,17.542779L127.432380,22.179196L121.850051,32.339857L111.933192,40.146367L108.572584,51.180888L112.736545,61.002400L121.484260,64.962443L131.873945,71.516853L139.035178,81.474935L145.022955,81.341363L154.352335,83.476598L170.440785,87.129234L185.370586,76.641681L197.516769,67.369631L201.432329,55.836592L203.549364,45.699784L208.077683,40.979417L216.974830,26.247059L216.576981,11.854722L208.249462,4.431319L200.883703,0.000000Z M0.629262,99.931478L3.105618,106.028327L7.583547,108.459640L13.451767,98.182850L18.005118,92.324635L23.123946,87.296079L30.236252,85.175449L40.744225,80.557645L41.206609,73.085494L46.595305,64.310854L51.581750,60.215321L50.959544,56.548028L48.562766,54.883381L39.670442,56.819724L35.771827,64.566990L31.861838,67.977891L18.517461,74.260598L9.291806,82.224422L0.629262,99.931478Z "/></g></svg>