<?xml version="1.0" encoding="utf-8"?><!DOCTYPE svg  PUBLIC '-//W3C//DTD SVG 1.1//EN'  'http://www.w3.org/Graphics/SVG/1.1/DTD/svg11.dtd'><svg enable_background="new 0 0 1000 656" height="656px" pretty_print="False" style="stroke-linejoin: round; stroke:#000; fill: none;" version="1.1" viewBox="0 0 1000 656" width="1000px" xmlns="http://www.w3.org/2000/svg" xmlns:xlink="http://www.w3.org/1999/xlink"><defs><style type="text/css"><![CDATA[path { fill-rule: evenodd; }]]></style></defs><metadata><views><view h="656.275134613" padding="0" w="1000"><proj id="laea-usa" lat0="45" lon0="-100"/><bbox h="41.05" w="62.65" x="882.77" y="1192.25"/></view></views></metadata><g class="" id="countylayer"><path d="M591.502173,206.162929L591.438736,209.771044L598.953076,211.168967L604.733288,214.130856L609.150401,220.165866L612.421669,219.741993L609.185407,212.388685L608.589555,212.379799L600.931582,203.912919L597.046820,203.900366L591.502173,206.162929Z "/><path d="M649.257415,261.196545L651.489268,267.075044L661.812835,280.719529L676.020530,287.597030L679.126114,289.100666L684.947920,284.942651L690.922700,286.636835L693.028139,293.868976L693.739078,297.264647L696.509076,313.120006L698.720467,324.495931L708.721346,328.338088L725.875144,324.716662L739.493722,318.354972L754.286990,318.476839L770.095057,311.037750L777.768971,304.469804L780.740419,295.368197L777.346071,285.298303L766.985192,282.409348L753.532409,272.484983L742.099814,266.522748L733.265809,257.543650L716.677449,255.921109L703.751624,261.993751L689.477412,265.508788L682.525761,254.424329L674.398795,242.349818L663.962843,240.088961L652.722380,249.461246L649.257415,261.196545Z M654.806143,332.134605L648.960302,337.546279L655.133717,342.985439L670.342162,341.579907L678.917084,338.423548L678.263749,328.104878L673.812074,323.242842L665.791272,325.450822L654.806143,332.134605Z M583.254330,262.664985L583.154317,268.324114L592.113181,274.257603L595.619975,279.739803L595.833068,289.711886L600.025446,297.740435L610.843042,296.860588L614.297975,295.811743L623.854277,291.925302L629.331659,280.940330L624.069093,272.453327L617.433266,266.341480L605.596073,260.330724L592.281359,259.451104L583.254330,262.664985Z M543.265842,214.432669L537.093962,225.593931L547.772372,228.357196L562.625313,227.780105L579.316971,225.575267L589.315902,228.127670L602.585588,232.628296L616.672938,235.930846L630.424976,232.417578L641.948490,223.700246L647.479848,214.384300L641.397929,210.940899L623.175062,212.593932L609.185407,212.388685L612.421669,219.741993L609.150401,220.165866L604.733288,214.130856L598.953076,211.168967L591.438736,209.771044L591.502173,206.162929L586.785134,208.086706L570.607324,205.997806L557.056209,202.481407L546.319542,201.210369L548.322914,209.332964L543.265842,214.432669Z "/><path d="M368.738411,129.970047L360.410894,130.893251L368.833657,141.761935L368.443668,148.890326L377.575030,160.272208L378.168831,165.345718L385.249485,171.394561L386.930862,176.292707L387.210958,177.108495L391.923458,186.368650L394.673509,186.209900L406.378474,184.219649L414.261361,182.969854L419.899080,183.669451L431.021885,184.913403L438.136870,189.272109L445.706699,194.587239L451.150208,193.128100L455.331089,190.640258L465.784762,193.439978L470.756372,189.488478L474.068493,184.568206L474.678360,183.662015L463.942618,174.845704L461.468539,166.021496L461.851345,155.026054L454.152574,154.576292L445.101412,158.670066L439.345351,153.439452L440.974985,141.018020L433.631195,132.063904L425.077155,117.087960L417.100389,104.942192L412.768623,105.841487L402.049326,113.009617L396.653249,121.454306L388.236522,129.533006L368.738411,129.970047Z "/><path d="M841.216204,654.275135L847.495715,649.454040L851.931854,643.777540L856.200347,636.410519L862.676627,624.218642L871.862664,610.658530L881.455989,607.809779L893.035785,598.019944L898.606084,596.440158L907.302822,588.138320L916.307659,583.421402L927.236968,585.924764L935.808978,584.363484L944.367921,579.894410L961.488599,571.691012L975.537656,561.581467L987.946235,551.321502L999.016104,537.915282L999.236962,532.120132L992.109855,528.457730L974.468045,517.723002L969.356120,512.208652L967.969439,500.916134L963.168652,491.412606L955.956310,491.391515L948.257421,493.803659L947.391428,484.300846L948.117162,468.745144L940.945517,460.585521L933.090644,452.685021L913.765775,437.814782L891.997942,427.685909L870.674684,418.631456L860.234727,415.297447L853.026409,416.741781L845.700058,411.193790L833.294302,403.690891L827.216895,397.624211L815.752341,391.543675L805.689397,388.185303L798.816266,391.439543L796.681985,406.829179L798.992067,417.336869L806.509767,429.298715L811.162538,436.458269L810.025276,444.957697L805.489576,447.721183L798.892742,454.988966L794.673445,463.875179L788.498154,469.833588L783.437350,471.144200L777.996821,477.658132L770.010527,485.007383L767.341611,494.795486L773.156870,506.866570L773.982944,510.625034L779.780470,512.023386L783.437633,518.818368L785.140635,529.074862L788.534568,542.687868L793.536418,549.096071L796.486055,556.641172L800.353575,569.878137L800.018684,579.543331L797.893362,587.519130L796.227170,603.130493L795.927118,618.861566L802.077630,631.115568L816.134764,635.480139L831.087239,644.130231L841.216204,654.275135Z "/><path d="M156.671842,0.000000L151.309858,2.396759L141.102296,0.374609L136.865947,5.417268L130.885353,1.754747L124.130918,1.295906L118.488565,5.553667L101.251321,13.548541L96.628997,17.281865L93.803674,25.584845L86.674660,31.879963L85.974071,40.936882L91.648391,49.105036L100.162570,52.501833L110.654432,58.060414L118.998305,66.378405L124.247455,66.351629L132.905166,68.241329L147.830995,71.469751L158.838704,63.013283L167.635434,55.520491L168.709924,46.058223L168.483409,37.724891L171.495781,33.888768L176.279247,21.850056L172.942498,9.976415L164.072852,3.749404L156.671842,0.000000Z M0.763038,79.435993L4.171418,84.515209L8.607444,86.600930L11.712417,78.213760L14.544913,73.453264L18.041264,69.387360L23.880006,67.756198L32.204821,64.118182L31.099371,57.955488L34.066970,50.798921L37.627165,47.499229L36.334147,44.460764L33.885278,43.046603L26.448074,44.497509L24.586149,50.829977L21.833423,53.580973L11.350048,58.542437L4.830416,64.960811L0.763038,79.435993Z "/></g></svg>